<?xml version="1.0" encoding="UTF-8" standalone="no"?>
<!DOCTYPE svg PUBLIC "-//W3C//DTD SVG 20010904//EN"
              "http://www.w3.org/TR/2001/REC-SVG-20010904/DTD/svg10.dtd">
<svg xmlns="http://www.w3.org/2000/svg" viewBox="0 100 1000 650">
  <style> 
  .slogan {font-size:30px;font-weight:600;font-family:cursive;transform: skew(-1deg, -15deg);}
  .animated{transform: translateZ(0);}
  </style>
  <defs>
      <linearGradient id="hanger_gradient" gradientTransform="rotate(50)">
      <stop offset="50%"  stop-color="black" />
      <stop offset="90%" stop-color="gray" />
    </linearGradient>
    <radialGradient id="sky_gradient"
	  cx="1" cy="1" r="7" fx="0.8" fy="0.1">
      <stop offset="0%" stop-color="#346"/>
      <stop offset="15%" stop-color="#003"/>
    </radialGradient>
	<marker id="dot" viewBox="0 0 10 10" refX="5" refY="5" markerWidth="5" markerHeight="5">
	  <circle cx="5" cy="5" r="5" fill="black"/>
	</marker>
  </defs>
  <rect id="floor" x="0" y="484" width="1000" height="266" fill="#303"/>
  <polygon id="wall_right" fill="#204" points="478,100 478,484 1000,670 1000,100" />
  <polygon id="wall_left" fill="#408" points="0,100 0,670 479,484 479,100" />
  <polygon id="frame" fill="#88a" points="190,170 190,250 380,200 380,120" stroke="#333" stroke-width="2" />
  <text x="210" y="255" class="slogan">find</text>
  <text x="250" y="290" class="slogan font-red" fill="#813">S V O C</text>
  <path id="clock"
        fill="#447" stroke="#420" stroke-width="5"
        d="M 35.33,154.00
           C -24.67,169.33 -34.67,290.00 35.00,276.00
             104.67,262.00 95.33,138.67 35.33,154.00 Z" />
  <polyline id="clock_numbers"
        fill="none" points="36.75,161.50 77.00,203.25 59.50,165.75 70.00,183.75 37.75,265.50 61.00,250.00 73.00,228.00 12.75,265.75 12.00,175.00" marker-start="url(#dot)" marker-mid="url(#dot)" marker-end="url(#dot)"/>
  <path id="clock_arrow2"
        fill="none" stroke="black" stroke-width="2"
        d="M 36.00,216.25
           C 36.00,216.25 64.50,248.75 64.50,248.75" />
  <path id="clock_arrow1"
        fill="none" stroke="black" stroke-width="3"
        d="M 36.00,216.25
           C 36.00,216.25 60.67,196.67 60.67,196.67" />
  <path id="hanger"
        fill="#310" stroke="#200" stroke-width="1"
        d="M 5.67,345.00
           C 5.67,345.00 149.00,301.33 149.00,301.33
             149.00,301.33 149.33,329.33 149.33,329.33
             149.33,329.33 6.67,373.00 6.67,373.00
             6.67,373.00 5.67,345.00 5.67,345.00 Z" />

  <path id="hat"
        fill="#2a2346" d="M 65.33,299.33
           C 106.00,315.33 130.67,381.33 103.33,408.00
             103.33,408.00 110.00,446.00 94.67,506.00
             92.08,513.22 95.53,453.87 85.33,441.33
             83.05,445.33 76.83,455.25 68.67,459.33
             40.67,473.33 24.67,424.67 33.33,394.00
             42.00,363.33 24.67,283.33 65.33,299.33 Z" />
  <circle id="hat_ball" fill="#2a2346" cx="94" cy="526" r="15" />
  <path id="hat_crease"
        fill="#00000099" d="M 92.33,471.33
           C 91.00,451.67 86.67,433.33 62.67,404.67
             52.03,404.82 43.82,358.93 54.00,358.33
             48.99,358.60 58.80,400.35 65.33,400.00
             71.00,401.33 67.67,383.00 72.67,380.67
             72.67,380.67 70.33,404.00 70.33,404.00
             70.95,400.36 83.33,393.00 83.33,393.00
             76.67,397.00 73.17,408.95 77.67,409.67
             86.35,409.97 96.14,471.47 92.33,471.33 Z" />  
  <path id="hanger_unit" fill="none" 
		stroke="url(#hanger_gradient)" stroke-width="2" stroke-linecap="round"
        d="M 139.33,321.67
           C 162.88,325.75 163.00,323.75 163.33,313.33M 109.33,331.33
           C 132.18,336.18 132.00,336.55 132.00,320.67M 22.33,356.33
           C 44.00,361.27 44.00,360.73 44.33,345.67" />
  <path id="window_frame" fill="#403" d="M 692,82 
		L 692,323 952,398 952,157 Z" />
  <polygon id="window_left"
        fill="#003" stroke="#124" stroke-width="2"
        points="702,92 817,125 817,353.17 702,320" />
  <path id="window_crack_tape"
        fill="none" stroke="#dd77" stroke-width="8"
        d="M 754.50,330.00
           C 754.50,330.00 783.50,303.50 783.50,303.50
             783.50,303.50 814.50,296.50 814.50,296.50M 813.50,340.25
           C 813.50,340.25 746.62,269.62 746.62,269.62M 813.75,317.75
           C 813.75,317.75 794.00,278.50 794.00,278.50
             794.00,278.50 785.12,222.75 785.12,222.75M 746.12,298.62
           C 746.12,298.62 764.88,274.25 764.88,274.25M 774.75,247.50
           C 774.75,247.50 798.75,243.75 798.75,243.75" />
  <polygon id="sky" fill="url(#sky_gradient)" points="827,128 942,160 942,390 827,356" />
  <path id="blanket" fill="#325" d="M 680.00,653.00
           C 665.83,658.50 648.50,688.17 677.00,702.50
             677.00,702.50 792.00,769.33 839.67,769.33
             887.33,769.33 999.50,682.17 999.50,682.17
             1002.43,681.12 1003.83,666.17 998.50,665.50
             1005.50,663.50 1007.56,624.88 998.83,627.50
             1005.45,625.64 1005.38,619.17 1000.18,615.27
             1000.18,615.27 881.67,545.67 825.67,545.67
             769.67,545.67 680.00,599.00 680.00,599.00
             673.50,606.83 660.13,630.40 680.00,653.00 Z" />
  <path id="blanket_patch"
        fill="#243" stroke="#888" stroke-width="3" stroke-dasharray=".5 3"
        d="M 713.75,643.00
           C 713.75,643.00 757.25,658.25 757.25,658.25
             752.34,650.25 754.25,635.50 790.25,617.50
             790.25,617.50 751.25,603.38 751.25,603.38
             713.00,621.50 710.48,634.73 713.75,643.00 Z" />
  <path id="blanket_patch2"
        fill="#423" stroke="#999" stroke-width="3" stroke-dasharray=".5 3"
        d="M 856.75,703.62
           C 856.75,703.62 926.12,673.00 926.12,673.00
             932.50,682.62 928.91,694.91 925.27,700.00
             925.27,700.00 853.82,736.55 853.82,736.55
             858.55,731.82 864.62,718.38 856.75,703.62 Z" />
  <path id="blanket_crease" fill="#00000077" d="M 1000.67,627.67
           C 1000.67,627.67 866.58,688.17 866.58,688.17
             860.25,691.08 854.83,693.67 845.33,689.67
             845.33,689.67 773.58,664.67 773.58,664.67
             769.08,659.54 767.46,657.29 769.33,651.67
             769.33,651.67 766.58,655.67 768.21,662.07
             768.21,662.07 692.33,634.92 692.33,634.92
             690.83,633.04 695.08,627.17 695.08,627.17
             695.08,627.17 692.46,631.17 690.21,633.04
             688.65,633.73 684.40,624.48 684.40,624.48
             684.40,624.48 688.65,632.79 688.46,636.04
             687.65,637.79 681.33,641.67 681.33,641.67
             681.33,641.67 689.52,635.73 693.02,636.92
             693.02,636.92 734.71,649.92 733.83,654.92
             730.83,660.79 735.08,666.17 735.08,666.17
             735.08,666.17 732.71,654.42 736.96,653.92
             741.21,653.42 799.21,673.48 793.71,678.04
             790.83,679.67 790.58,682.67 790.58,682.67
             790.58,682.67 792.71,679.04 796.58,679.67
             793.83,681.92 796.83,687.67 796.83,687.67
             796.83,687.67 796.71,679.54 800.58,679.67
             804.46,679.79 839.58,694.17 839.58,694.17
             858.06,698.76 858.63,695.85 873.52,692.03
             873.52,692.03 916.42,671.30 922.08,671.17
             930.97,670.58 930.33,682.17 930.33,682.17
             930.33,682.17 933.15,670.03 926.79,667.67
             920.42,665.30 1002.33,632.00 1002.33,632.00
             1002.33,632.00 1000.67,627.67 1000.67,627.67 Z
           M 998.70,665.27
           C 998.70,665.27 965.12,683.79 965.12,683.79
             968.39,679.42 968.39,670.52 968.39,670.52
             968.39,670.52 965.85,682.33 958.39,686.95
             958.39,686.95 898.56,718.75 898.56,718.75
             901.74,714.81 901.85,705.06 901.85,705.06
             901.85,705.06 898.76,717.40 892.09,722.61
             892.09,722.61 848.70,745.94 848.70,745.94
             848.70,745.94 829.03,745.94 829.03,745.94
             829.03,745.94 751.15,707.95 751.15,707.95
             746.41,705.11 744.91,695.11 744.91,695.11
             744.91,695.11 744.10,703.21 746.28,705.73
             746.28,705.73 682.06,674.26 682.06,674.26
             680.33,672.87 680.03,666.86 680.03,666.86
             680.03,666.86 680.03,672.39 678.78,673.98
             677.11,674.42 672.03,669.98 672.03,669.98
             672.03,669.98 675.01,674.09 677.20,675.90
             678.42,676.90 672.78,679.98 672.78,679.98
             672.78,679.98 677.26,677.23 681.28,678.61
             691.08,681.97 706.28,691.48 706.28,691.48
             699.08,695.60 703.41,700.23 703.41,700.23
             703.41,700.23 704.03,691.48 711.48,693.30
             711.48,693.30 778.78,726.98 778.78,726.98
             773.78,729.61 775.28,735.48 775.28,735.48
             775.28,735.48 775.78,726.11 788.28,731.48
             788.28,731.48 826.03,749.27 826.03,749.27
             826.03,749.27 851.70,750.27 851.70,750.27
             851.70,750.27 929.98,707.09 929.98,707.09
             935.16,707.73 934.91,711.86 934.91,711.86
             934.91,711.86 935.66,707.11 933.53,705.61
             933.53,705.61 1000.36,668.27 1000.36,668.27
             1000.36,668.27 998.70,665.27 998.70,665.27 Z
           M 682.25,653.58
           C 683.72,653.64 754.91,685.18 754.91,685.18
             753.47,683.26 756.02,674.69 757.50,675.71
             757.36,677.27 755.62,685.21 758.96,687.09
             758.96,687.09 826.33,717.33 826.33,717.33
             828.57,719.13 831.33,710.33 831.33,710.33
             831.33,710.33 828.73,717.42 830.33,718.45
             831.94,719.48 836.00,717.79 836.00,717.79
             836.00,717.79 831.00,719.88 830.33,721.33
             829.27,723.70 829.00,731.67 829.00,731.67
             829.00,731.67 828.27,724.61 826.55,723.42
             825.09,718.79 792.41,708.07 792.41,708.07
             787.38,707.21 787.01,714.28 787.50,714.58
             783.99,713.68 787.19,705.90 787.88,705.83
             787.88,705.83 731.75,679.46 731.75,679.46
             728.88,679.08 727.75,683.96 729.12,687.58
             725.87,686.60 727.08,678.57 729.17,678.61
             729.17,678.61 682.65,656.83 681.50,656.46
             678.38,655.46 676.75,655.71 676.75,655.71
             676.91,654.66 679.25,653.46 682.25,653.58 Z" />
  <polygon id="desk_front1" fill="#530" points="262.36,516.92
			261.25,679.50 241.00,689.75 241.66,522.00" />
  <polygon id="desk_front2" fill="#530" points="602.50,411.50 
			624.00,401.50 623.50,547.50 602.00,557.50" />
  <polygon id="desk_inside" fill="#321" points="602.34,556.96
			501.33,515.33 504.67,384.67 603.00,413.33" />
  <polygon id="desk_outside" fill="#321" points="241.33,528.67
			136.33,483.33 138.34,626.21 241.00,689.00" />
  <polygon id="desk_upfront" fill="#421" points="641.09,399.00
			235.69,546.88 236.09,530.00 641.36,382.91" />
  <polygon id="desk_upside" fill="#310" points="106.54,488.50
			235.75,547.00 236.09,530.09 106.16,469.12" />
  <polygon id="desk_board" fill="#210" points="236.33,531.00
			641.41,382.90 478.67,336.00 106.00,468.75 " />
  <path id="stand_base" fill="#ae0014" d="M 472.92,400.59
           C 540.43,420.73 602.83,375.25 555.21,361.04
             507.59,346.84 405.40,380.45 472.92,400.59 Z" />
  <path id="stand_joint" fill="none" stroke-linecap="round" 
  stroke-linejoin="round" stroke="#be0024" stroke-width="20"
        d="M 508.33,381.86
           C 508.33,381.86 584.38,269.46 584.38,269.46
             584.38,269.46 493.75,202.85 493.75,202.85" />
  <path id="stand_head" fill="crimson" d="M 460.42,184.12
           C 467.71,158.62 501.82,164.86 495.83,190.36
             495.83,190.36 491.67,213.00 491.67,213.00
             503.39,214.82 515.62,238.24 515.62,238.24
             515.62,238.24 417.71,222.63 417.71,222.63
             417.71,222.63 439.84,206.23 454.95,207.01
             454.95,207.01 460.42,184.12 460.42,184.12 Z" />
  <path id="keyboard1" fill="silver" stroke="gray" stroke-width="1"
        d="M 424.00,442.00
           C 424.00,442.00 375.00,421.67 375.00,421.67
             375.00,421.67 265.18,464.14 265.18,464.14
             258.46,466.74 263.09,471.09 263.09,471.09
             263.09,471.09 283.21,482.68 296.93,489.49
             301.20,491.61 308.50,489.88 308.50,489.88
             308.50,489.88 424.00,442.00 424.00,442.00 Z" />
  <path id="keyboard2"
        fill="white" stroke="gray" stroke-width=".5"
        d="M 294.88,485.25
           C 294.88,485.25 300.62,487.88 300.62,487.88
             300.62,487.88 393.25,452.12 393.25,452.12
             393.25,452.12 387.38,449.88 387.38,449.88
             387.38,449.88 294.88,485.25 294.88,485.25 Z
           M 286.12,480.75
           C 286.12,480.75 290.88,483.25 290.88,483.25
             290.88,483.25 385.12,447.75 385.12,447.75
             385.12,447.75 374.25,444.88 374.25,444.88
             374.25,444.88 286.12,480.75 286.12,480.75 Z
           M 283.00,478.25
           C 283.00,478.25 278.25,476.12 278.25,476.12
             278.25,476.12 366.25,440.25 366.25,440.25
             366.25,440.25 370.88,443.00 371.38,443.38
             371.88,443.75 283.00,478.25 283.00,478.25 Z
           M 276.38,474.75
           C 276.38,474.75 271.62,472.00 271.62,472.00
             271.62,472.00 359.00,437.12 359.00,437.12
             359.00,437.12 364.12,439.88 364.12,439.88
             364.12,439.88 276.38,474.75 276.38,474.75 Z
           M 268.62,470.12
           C 268.62,470.12 263.50,467.50 263.50,467.50
             263.50,467.50 351.75,433.50 351.75,433.50
             351.75,433.50 356.88,436.12 356.88,436.12
             356.88,436.12 268.62,470.12 268.62,470.12 Z" />
  <path id="keyboard3"
        fill="none" stroke="silver" stroke-width="2"
        d="M 271.38,463.50
           C 271.38,463.50 278.62,467.75 278.62,467.75
             278.62,467.75 276.62,468.75 276.62,468.75
             276.62,468.75 283.12,473.00 283.12,473.00
             283.12,473.00 286.50,472.12 286.50,472.12
             286.50,472.12 292.62,475.25 292.62,475.25
             292.62,475.25 297.00,475.12 297.00,475.12
             297.00,475.12 305.00,479.25 305.00,479.25
             305.00,479.25 301.12,481.12 301.12,481.12
             301.12,481.12 309.88,486.12 309.88,486.12
             309.88,486.12 317.62,483.50 317.62,483.50
             317.62,483.50 308.88,478.38 308.88,478.38
             308.88,478.38 310.62,477.75 310.62,477.75
             310.62,477.75 303.50,472.62 303.50,472.62
             303.50,472.62 299.12,474.00 299.12,474.00
             299.12,474.00 293.25,469.00 293.25,469.00
             293.25,469.00 289.25,470.25 289.25,470.25
             289.25,470.25 283.25,465.88 283.25,465.88
             283.25,465.88 284.88,465.25 284.88,465.25
             284.88,465.25 278.00,460.25 278.00,460.25
             278.00,460.25 285.12,458.00 285.12,458.00
             285.12,458.00 291.12,462.62 291.12,462.62
             291.12,462.62 290.25,463.62 290.25,463.62
             290.25,463.62 296.12,467.75 296.12,467.75
             296.12,467.75 300.75,466.38 300.75,466.38
             300.75,466.38 305.88,470.12 305.88,470.12
             305.88,470.12 309.88,469.00 309.88,469.00
             309.88,469.00 326.38,480.25 326.38,480.25M 325.12,471.88
           C 325.12,471.88 317.88,466.38 317.88,466.38
             317.88,466.38 313.25,467.88 313.25,467.88
             313.25,467.88 307.75,463.38 307.75,463.38
             307.75,463.38 303.88,465.25 303.88,465.25
             303.88,465.25 297.88,460.88 297.88,460.88
             297.88,460.88 299.88,459.38 299.88,459.38
             299.88,459.38 293.25,454.50 293.25,454.50
             293.25,454.50 302.12,451.38 302.12,451.38
             302.12,451.38 308.62,456.12 308.62,456.12
             308.62,456.12 305.38,457.75 305.38,457.75
             305.38,457.75 309.88,462.50 309.88,462.50
             309.88,462.50 315.88,459.88 315.88,459.88
             315.88,459.88 320.75,465.00 320.75,465.00
             320.75,465.00 324.75,463.38 324.75,463.38
             324.75,463.38 332.50,468.75 332.50,468.75
             332.50,468.75 339.88,466.62 339.88,466.62
             339.88,466.62 332.00,460.75 332.00,460.75
             332.00,460.75 327.75,462.12 327.75,462.12
             327.75,462.12 322.62,457.38 322.62,457.38
             322.62,457.38 318.62,458.88 318.62,458.88
             318.62,458.88 313.25,454.25 313.25,454.25
             313.25,454.25 317.00,452.25 317.00,452.25
             317.00,452.25 311.12,448.38 311.12,448.38
             311.12,448.38 318.00,445.50 318.00,445.50
             318.00,445.50 323.38,450.00 323.38,450.00
             323.38,450.00 321.00,451.38 321.00,451.38
             321.00,451.38 325.75,455.75 325.75,455.75
             325.75,455.75 330.25,454.12 330.25,454.12
             330.25,454.12 335.50,458.75 335.50,458.75
             335.50,458.75 340.25,457.50 340.25,457.50
             340.25,457.50 345.75,464.12 345.75,464.12
             345.75,464.12 353.00,462.12 353.00,462.12
             353.00,462.12 347.50,454.62 347.50,454.62
             347.50,454.62 343.50,456.12 343.50,456.12
             343.50,456.12 338.25,450.88 338.25,450.88
             338.25,450.88 333.88,453.25 333.88,453.25
             333.88,453.25 327.38,448.38 327.38,448.38
             327.38,448.38 331.12,447.25 331.12,447.25
             331.12,447.25 325.50,442.62 325.50,442.62
             325.50,442.62 332.75,439.88 332.75,439.88
             332.75,439.88 337.50,444.38 337.62,444.38
             337.75,444.38 335.50,445.75 335.50,445.75
             335.50,445.75 341.50,449.62 341.50,449.62
             341.50,449.62 346.62,447.75 346.62,447.75
             346.62,447.75 351.50,452.12 351.50,452.12
             351.50,452.12 349.88,446.50 349.88,446.50
             349.88,446.50 343.00,442.62 343.00,442.62
             343.00,442.62 345.75,441.38 345.75,441.38
             345.75,441.38 339.25,437.88 339.25,437.88
             339.25,437.88 345.12,435.50 345.12,435.50
             345.12,435.50 351.62,438.88 351.62,438.88" />
  <path id="cat_tail" class="animated" fill="none" stroke="#bebece" stroke-width="13" stroke-linecap="round"
        d="M 898.88,585.62
           C 870.00,614.12 896.38,624.38 894.75,635.25
             892.64,656.91 835.33,648.03 836.62,634.75" >
	<animate attributeName="d" dur="2s" begin="1.5s" repeatCount="indefinite" keyTimes="0;.70;.9;1"
		values="M 898.88,585.62
           C 870.00,614.12 896.38,624.38 894.75,635.25
             892.64,656.91 835.33,648.03 836.62,634.75;
			 M 898.88,585.62
           C 870.00,614.12 896.38,624.38 894.75,635.25
             892.64,656.91 835.33,648.03 836.62,634.75;
			 M 898.88,585.62
           C 870.00,614.12 896.38,624.38 894.75,635.25
             892.64,656.91 840.00,648.00 850.73,623.27;
			 M 898.88,585.62
           C 870.00,614.12 896.38,624.38 894.75,635.25
             892.64,656.91 835.33,648.03 836.62,634.75" />
  </path>
  <path id="cat_back_right_leg" fill="#ccd" stroke="black" d="M 848.00,568.00
           C 847.00,580.00 843.00,578.00 833.67,577.33
             823.00,571.33 812.33,562.33 801.00,563.00
             788.33,562.33 789.33,539.67 807.33,546.67
             807.36,546.26 835.21,555.82 835.00,559.00
             831.82,529.64 856.36,526.91 867.27,545.64"/>
  <path id="cat_body" fill="#ccd" d="M 953.59,488.73
           C 957.33,509.91 961.36,538.91 961.00,545.67
             958.73,586.73 950.55,602.73 903.25,602.75
             882.92,604.75 846.00,582.00 848.00,568.00
             849.09,554.36 848.73,540.18 875.00,519.25
             869.88,518.95 875.91,497.36 895.50,480.25
             915.09,463.14 949.36,460.36 953.59,488.73 Z" />
  <polygon id="ipad"
        fill="skyblue" stroke="black" stroke-width="3.5" stroke-linejoin="round"
        points="874.33,517.33 844.67,546.67 916.33,576.67 944.33,541.00" />
  <path id="game_ball1" class="animated" fill="cyan" d="M 916.18,558.91
           C 923.37,561.12 917.09,565.27 911.09,563.64
             905.09,562.00 909.00,556.70 916.18,558.91 Z">
	<animate attributeName="fill" dur="1s" calcMode="discrete" begin=".375s" keyTimes="0;.125;1"
		repeatCount="indefinite" values="white;cyan;white"/>
  </path>
  <path id="game_ball2" fill="magenta" d="M 932.73,541.64
           C 939.91,543.85 933.64,548.00 927.64,546.36
             921.64,544.73 925.54,539.42 932.73,541.64 Z" />
  <path id="game_ball3" class="animated" fill="yellow" d="M 925.45,550.36
           C 932.64,552.58 926.36,556.73 920.36,555.09
             914.36,553.45 918.27,548.15 925.45,550.36 Z">
	<animate attributeName="fill" dur="1s" calcMode="discrete" begin=".25s" keyTimes="0;.125;1"
		repeatCount="indefinite" values="white;yellow;white"/>
  </path>
  <path id="game_ball4" class="animated" fill="red" d="M 908.91,549.09
           C 916.09,551.30 909.82,555.45 903.82,553.82
             897.82,552.18 901.72,546.88 908.91,549.09 Z">
	<animate attributeName="fill" dur="1s" calcMode="discrete" begin=".125s" keyTimes="0;.125;1"
		repeatCount="indefinite" values="white;red;white"/>
  </path>
  <path id="game_ball5" fill="blue" d="M 917.09,541.27
           C 924.28,543.48 918.00,547.64 912.00,546.00
             906.00,544.36 909.91,539.06 917.09,541.27 Z" />
  <path id="game_ball6" class="animated" fill="green" d="M 890.91,549.09
           C 898.09,551.30 891.82,555.45 885.82,553.82
             879.82,552.18 883.72,546.88 890.91,549.09 Z">
	<animate attributeName="fill" dur="1s" calcMode="discrete" begin=".625s" keyTimes="0;.125;1"
		repeatCount="indefinite" values="white;green;white"/>
  </path>
  <path id="game_ball7" class="animated" d="M 907.64,533.09
           C 914.82,535.30 908.55,539.45 902.55,537.82
             896.55,536.18 900.45,530.88 907.64,533.09 Z">
	<animate attributeName="fill" dur="1s" calcMode="discrete" keyTimes="0;.125;1"
		repeatCount="indefinite" values="white;cyan;white"/>
  </path>
  <path id="game_ball8" class="animated" fill="magenta" d="M 899.45,540.36
           C 906.64,542.58 900.36,546.73 894.36,545.09
             888.36,543.45 892.27,538.15 899.45,540.36 Z">
	<animate attributeName="fill" dur="1s" calcMode="discrete" begin=".5s" keyTimes="0;.125;1"
		repeatCount="indefinite" values="white;magenta;white"/>
  </path>
  <path id="game_ball9" fill="yellow" d="M 890.91,532.18
           C 898.09,534.39 891.82,538.55 885.82,536.91
             879.82,535.27 883.72,529.97 890.91,532.18 Z" />
  <path id="game_ball10" class="animated" fill="red" d="M 882.36,539.45
           C 889.55,541.67 883.27,545.82 877.27,544.18
             871.27,542.55 875.18,537.24 882.36,539.45 Z">
	<animate attributeName="fill" dur="1s" calcMode="discrete" begin=".75s" keyTimes="0;.125;1"
		repeatCount="indefinite" values="white;red;white"/>
  </path>
  <path id="game_ball11" fill="blue" d="M 866.73,539.64
           C 873.91,541.85 867.64,546.00 861.64,544.36
             855.64,542.73 859.54,537.42 866.73,539.64 Z" />
  <path id="game_ball12" fill="green" d="M 882.18,525.27
           C 889.37,527.48 883.09,531.64 877.09,530.00
             871.09,528.36 875.00,523.06 882.18,525.27 Z" />
  <path id="game_ball13" class="animated" fill="cyan" d="M 874.73,531.82
           C 881.91,534.03 875.64,538.18 869.64,536.55
             863.64,534.91 867.54,529.61 874.73,531.82 Z">
	<animate attributeName="fill" dur="1s" calcMode="discrete" begin=".25s" keyTimes="0;.125;1"
		repeatCount="indefinite" values="white;cyan;white"/>
  </path>
  <path id="cat_front_legs" class="animated" fill="#ccd" stroke="black" stroke-width="1"
	d="M 910.82,477.00 C 897.44,471.12 868.88,490.88 876.62,516.00
             877.62,519.25 882.26,524.95 887.38,525.25
             887.38,525.25 896.31,531.18 899.38,532.00
             902.00,538.12 911.50,538.62 905.50,529.50
             903.62,526.38 893.88,519.75 893.88,519.75M 953.62,487.83
           C 957.25,499.18 966.75,538.75 961.00,545.67
             962.06,546.00 939.09,549.30 935.18,552.27
             928.54,563.21 919.09,560.17 925.45,546.73
             931.64,540.82 947.44,533.31 947.44,533.31">
	<animate attributeName="d" dur="1s" repeatCount="indefinite" keyTimes="0;.125;.25;.375;.5;.625;.75;.875;1"
		values="M 910.82,477.00
           C 897.44,471.12 868.88,490.88 876.62,516.00
             877.62,519.25 882.26,524.95 887.38,525.25
             887.38,525.25 896.31,531.18 899.38,532.00
             902.00,538.12 911.50,538.62 905.50,529.50
             903.62,526.38 893.88,519.75 893.88,519.75M 953.62,487.83
           C 957.25,499.18 966.75,538.75 961.00,545.67
             962.06,546.00 939.09,549.30 935.18,552.27
             928.54,563.21 919.09,560.17 925.45,546.73
             931.64,540.82 947.44,533.31 947.44,533.31;M 910.82,477.00
           C 897.44,471.12 880.50,471.25 863.00,513.00
             862.25,516.25 864.21,523.70 869.33,524.00
             869.33,524.00 881.62,523.06 884.69,523.88
             889.12,528.75 894.44,530.25 892.50,521.00
             890.62,517.88 876.25,514.62 876.25,514.62M 953.62,487.83
           C 957.25,499.18 959.38,536.62 940.88,541.62
             941.93,541.95 919.66,545.53 915.75,548.50
             907.75,558.50 897.00,548.50 909.62,541.62
             915.81,535.71 931.50,530.25 931.50,530.25;M 910.82,477.00
           C 897.44,471.12 885.75,472.75 865.25,506.88
             864.50,510.12 860.88,510.62 863.25,520.12
             863.25,520.12 866.81,528.68 869.88,529.50
             864.62,535.50 878.06,538.38 876.12,529.12
             872.12,513.50 879.50,510.00 879.50,510.00M 953.62,487.83
           C 957.25,499.18 966.75,538.75 961.00,545.67
             962.06,546.00 939.09,549.30 935.18,552.27
             928.54,563.21 919.09,560.17 925.45,546.73
             931.64,540.82 947.44,533.31 947.44,533.31;M 910.82,477.00
           C 897.44,471.12 880.50,471.25 863.00,513.00
             862.25,516.25 864.21,523.70 869.33,524.00
             869.33,524.00 881.62,523.06 884.69,523.88
             889.12,528.75 894.44,530.25 892.50,521.00
             890.62,517.88 876.25,514.62 876.25,514.62M 953.62,487.83
           C 957.25,499.18 948.25,528.83 942.50,535.75
             943.56,536.08 924.79,554.28 920.88,557.25
             919.00,564.25 906.26,566.69 912.62,553.25
             918.81,547.34 926.00,531.00 926.00,531.00;M 910.82,477.00
           C 897.44,471.12 864.00,491.12 875.75,523.75
             875.00,527.00 877.01,532.95 882.12,533.25
             882.12,533.25 888.06,539.55 891.12,540.38
             895.55,545.24 905.12,543.88 898.38,536.88
             889.25,531.38 885.38,519.75 885.38,519.75M 953.62,487.83
           C 957.25,499.18 966.75,538.75 961.00,545.67
             962.06,546.00 939.09,549.30 935.18,552.27
             928.54,563.21 919.09,560.17 925.45,546.73
             931.64,540.82 947.44,533.31 947.44,533.31;M 910.82,477.00
           C 897.44,471.12 880.50,471.25 863.00,513.00
             862.25,516.25 864.21,523.70 869.33,524.00
             869.33,524.00 881.62,523.06 884.69,523.88
             889.12,528.75 894.44,530.25 892.50,521.00
             890.62,517.88 876.25,514.62 876.25,514.62M 955.25,501.25
           C 958.88,512.59 941.12,531.75 931.62,533.25
             932.68,533.58 909.62,537.88 897.25,549.75
             890.61,560.69 882.75,547.00 893.75,544.75
             906.38,529.38 914.50,525.50 914.50,525.50;M 910.82,477.00
           C 897.44,471.12 873.62,495.00 871.62,511.25
             870.88,514.50 867.38,518.00 871.62,525.38
             871.62,525.38 874.88,533.38 876.12,538.25
             875.50,546.38 884.94,545.88 883.00,536.62
             881.12,533.50 880.50,516.62 880.50,516.62M 953.62,487.83
           C 957.25,499.18 966.75,538.75 961.00,545.67
             962.06,546.00 939.09,549.30 935.18,552.27
             928.54,563.21 919.09,560.17 925.45,546.73
             931.64,540.82 947.44,533.31 947.44,533.31;M 910.82,477.00
           C 897.44,471.12 880.50,471.25 863.00,513.00
             862.25,516.25 864.21,523.70 869.33,524.00
             869.33,524.00 881.62,523.06 884.69,523.88
             889.12,528.75 894.44,530.25 892.50,521.00
             890.62,517.88 876.25,514.62 876.25,514.62M 953.62,487.83
           C 957.25,499.18 965.00,536.95 959.25,543.88
             960.31,544.20 933.54,547.78 929.62,550.75
             922.50,556.00 913.62,551.25 924.25,545.12
             928.00,540.38 946.62,531.25 946.62,531.25;M 910.82,477.00
           C 897.44,471.12 868.88,490.88 876.62,516.00
             877.62,519.25 882.26,524.95 887.38,525.25
             887.38,525.25 896.31,531.18 899.38,532.00
             902.00,538.12 911.50,538.62 905.50,529.50
             903.62,526.38 893.88,519.75 893.88,519.75M 953.62,487.83
           C 957.25,499.18 966.75,538.75 961.00,545.67
             962.06,546.00 939.09,549.30 935.18,552.27
             928.54,563.21 919.09,560.17 925.45,546.73
             931.64,540.82 947.44,533.31 947.44,533.31" />
  </path>
  <path id="cat_back_left_leg"
        fill="#ccd" stroke="black" stroke-width="1"
        d="M 934.00,576.18
           C 934.00,576.18 948.18,582.18 945.25,592.50
             942.73,599.82 932.82,600.27 928.33,600.67
             931.73,600.91 948.00,607.25 955.00,612.33
             963.65,621.55 950.15,628.17 944.67,622.33
             939.50,617.75 912.64,610.15 906.67,615.33
             900.50,613.25 901.25,608.50 903.25,602.75"/>
  <path id="cat_sole" fill="pink" stroke="#779" stroke-width=".5"
        d="M 795.25,558.44
           C 795.48,559.07 798.83,561.18 798.06,559.06
             797.29,556.95 795.02,557.81 795.25,558.44 Z
           M 794.29,554.40
           C 794.22,553.00 797.02,553.10 797.62,555.25
             798.23,557.40 794.36,555.80 794.29,554.40 Z
           M 794.44,550.88
           C 794.59,549.59 798.08,550.09 797.81,551.81
             797.54,553.53 794.29,552.16 794.44,550.88 Z
           M 796.62,548.38
           C 797.12,546.99 801.22,548.61 800.12,549.88
             799.03,551.14 796.13,549.76 796.62,548.38 Z
           M 801.04,553.53
           C 798.93,553.07 798.33,555.84 800.04,557.40
             800.16,559.96 800.20,560.73 801.53,560.80
             802.87,560.87 804.64,553.18 803.49,552.44
             802.33,551.71 801.89,552.56 801.04,553.53 Z
           M 946.91,621.87
           C 947.87,621.17 949.74,623.04 948.57,623.52
             947.39,624.00 945.96,622.57 946.91,621.87 Z
           M 950.09,621.17
           C 951.41,620.20 952.83,622.26 952.09,623.04
             951.35,623.83 948.76,622.15 950.09,621.17 Z
           M 952.65,620.00
           C 953.23,618.79 955.52,620.83 954.87,621.70
             954.22,622.57 952.08,621.21 952.65,620.00 Z
           M 953.09,617.09
           C 953.36,615.65 956.39,617.52 956.04,618.48
             955.70,619.43 952.82,618.53 953.09,617.09 Z
           M 949.57,617.17
           C 951.83,619.90 948.80,620.40 948.22,619.70
             945.36,621.91 945.39,619.57 945.61,618.78
             945.83,618.00 947.04,615.87 947.61,615.30
             948.17,614.74 951.42,613.81 949.57,617.17 Z"/>
<g transform="rotate(-15 944 499)">
  <path id="cat_head" fill="#ccd" d="M 909.50,456.00
           C 909.50,456.00 908.25,443.00 911.25,441.75
             914.25,440.50 919.75,451.25 923.25,453.50
             926.75,455.75 933.25,459.25 940.50,461.25
             947.75,463.25 956.75,455.25 958.75,458.00
             960.75,460.75 954.50,467.00 953.75,472.00
             953.14,474.84 953.59,480.22 954.54,486.84
             957.51,507.56 891.09,494.55 894.50,474.50
             895.75,466.75 904.75,457.25 909.50,456.00 Z" />
  <path id="cat_hair" fill="#001" d="M 922.49,452.93
           C 922.79,453.08 915.83,460.56 913.81,459.56
             907.31,460.31 916.56,467.19 930.00,461.33
             929.12,461.27 937.77,472.20 939.67,472.33
             951.30,475.95 940.70,461.24 939.84,461.12
             934.88,459.84 924.00,454.66 922.49,452.93 Z" />
  <path id="cat_ear"
        fill="pink" stroke="gray" stroke-width="1"
        d="M 910.44,455.81
           C 911.38,454.58 917.13,453.86 919.25,454.31
             919.25,454.31 913.75,442.88 911.88,443.06
             910.00,443.25 910.44,455.81 910.44,455.81 Z
           M 943.75,462.75
           C 946.38,462.69 956.44,457.12 957.69,458.31
             958.94,459.50 949.12,469.75 949.12,469.75
             948.94,467.62 945.50,463.75 943.75,462.75 Z" />
  <path id="cat_face"
        fill="none" stroke="black" stroke-width="1" stroke-linecap="round" stroke-linejoin="round"
        d="M 922.49,452.93
           C 922.79,453.08 915.83,460.56 913.81,459.56
             907.31,460.31 916.56,467.19 930.00,461.33
             929.12,461.27 937.77,472.20 939.67,472.33
             951.30,475.95 940.70,461.24 939.84,461.12
             934.88,459.84 924.00,454.66 922.49,452.93 Z
           M 914.38,481.75
           C 914.38,481.75 914.82,483.45 914.82,483.45
             914.82,483.45 920.55,479.82 920.55,479.82
             920.55,479.82 918.09,479.36 918.09,479.36
             918.09,479.36 920.18,484.73 920.18,484.73
             920.18,484.73 922.97,483.00 922.88,483.00M 941.00,490.82
           C 937.38,486.06 928.00,483.91 928.00,483.91M 910.09,473.36
           C 910.09,473.36 901.00,465.50 891.45,464.27M 896.00,474.27
           C 901.81,473.50 910.36,477.00 910.36,477.00M 949.25,482.88
           C 939.81,479.56 929.36,480.82 929.36,480.82M 930.28,475.06
           C 930.28,475.06 935.03,475.81 935.03,475.81M 935.38,476.94
           C 935.38,476.94 931.25,476.25 931.25,476.25M 912.53,467.22
           C 912.53,467.22 915.69,469.41 915.69,469.41M 912.94,468.31
           C 912.94,468.31 916.25,470.81 916.25,470.81" />
</g>
  <path id="hand" class="animated" fill="#ffcca9" stroke="#af7c59" d="M 314.18,486.55
           C 314.18,486.55 303.64,481.45 301.82,477.82
             300.82,475.36 298.91,473.27 296.00,472.00
             294.12,469.88 298.38,470.75 304.09,475.36
             302.75,470.62 298.10,465.93 296.62,466.75
             293.50,466.62 297.62,460.62 306.00,472.25
             306.89,471.58 301.37,463.04 300.75,463.50
             296.62,462.25 302.12,456.88 310.36,471.73
             311.87,472.52 308.88,463.12 307.00,461.62
             304.38,460.75 306.00,453.75 316.18,471.91
             318.15,471.29 314.38,467.88 316.25,464.25
             318.88,457.12 318.55,477.64 326.55,478.55
             326.55,478.55 314.18,486.55 314.18,486.55 Z">
    <animate attributeName="d" keyTimes="0;.2;.4;.6;.8;1" dur=".3s" repeatCount="indefinite"
		values="M 314.18,486.55
           C 314.18,486.55 303.64,481.45 301.82,477.82
             300.82,475.36 298.91,473.27 296.00,472.00
             294.12,469.88 298.38,470.75 304.09,475.36
             302.75,470.62 298.10,465.93 296.62,466.75
             293.50,466.62 297.62,460.62 306.00,472.25
             306.89,471.58 301.37,463.04 300.75,463.50
             296.62,462.25 302.12,456.88 310.36,471.73
             311.87,472.52 308.88,463.12 307.00,461.62
             304.38,460.75 306.00,453.75 316.18,471.91
             318.15,471.29 314.38,467.88 316.25,464.25
             318.88,457.12 318.55,477.64 326.55,478.55
             326.55,478.55 314.18,486.55 314.18,486.55 Z;
			 M 318.10,486.12
           C 318.10,486.12 311.14,478.98 309.32,475.35
             308.32,472.89 305.66,473.64 302.75,472.38
             303.62,470.38 304.94,469.88 310.40,472.31
             309.06,467.57 306.86,467.68 305.38,468.50
             302.25,468.37 304.89,458.98 313.27,470.61
             314.69,470.01 313.00,465.12 309.25,463.75
             305.12,462.50 319.00,460.38 316.01,470.35
             317.88,471.62 319.50,464.15 314.38,462.25
             311.82,461.38 319.18,453.17 322.88,471.38
             324.85,470.75 326.88,467.00 327.38,466.38
             338.12,461.12 324.50,469.75 330.47,478.12
             330.47,478.12 318.10,486.12 318.10,486.12 Z;
			 M 315.22,487.48
           C 315.22,487.48 301.70,480.07 299.88,476.44
             298.88,473.98 296.39,470.87 292.70,472.39
             289.96,472.43 294.52,464.79 299.44,472.06
             298.10,467.32 297.86,464.93 296.38,465.75
             293.25,465.62 297.88,459.19 302.00,470.69
             302.89,470.02 300.81,462.42 300.19,462.88
             296.06,461.62 300.69,454.69 305.31,470.31
             306.82,471.10 306.82,465.31 304.94,463.81
             302.32,462.94 305.69,456.75 309.56,471.00
             311.53,470.38 309.32,469.63 311.19,466.00
             315.56,461.75 307.88,472.62 324.57,478.78
             324.57,478.78 315.22,487.48 315.22,487.48 Z;
			 M 316.79,488.25
           C 316.79,488.25 306.25,483.15 304.43,479.52
             303.43,477.06 304.53,476.27 301.62,475.00
             299.75,472.88 304.25,472.19 306.70,477.06
             305.36,472.32 301.39,469.61 299.91,470.43
             296.79,470.30 303.78,464.00 308.61,473.95
             309.50,473.28 302.56,464.85 301.94,465.31
             297.81,464.06 302.88,458.88 312.97,473.43
             314.48,474.22 309.94,466.56 308.06,465.06
             305.44,464.19 305.88,457.06 318.79,473.61
             320.76,472.99 316.99,469.58 318.86,465.95
             321.49,458.82 321.16,479.34 329.16,480.25
             329.16,480.25 316.79,488.25 316.79,488.25 Z;
			 M 315.83,486.64
           C 315.83,486.64 306.34,479.41 304.52,475.78
             303.52,473.32 302.56,471.84 299.65,470.57
             297.77,468.45 301.61,467.70 306.65,473.91
             305.31,469.17 304.39,468.52 301.91,465.83
             298.79,465.70 302.65,459.78 309.65,472.65
             310.54,471.98 305.62,462.93 305.00,463.39
             300.87,462.14 307.13,456.78 313.19,471.77
             315.11,472.59 313.78,464.04 313.17,464.04
             310.55,463.17 315.00,454.64 317.83,472.00
             319.80,471.38 317.56,469.59 319.43,465.96
             322.06,458.83 320.20,477.73 328.20,478.64
             328.20,478.64 315.83,486.64 315.83,486.64 Z;
			 M 314.18,486.55
           C 314.18,486.55 303.64,481.45 301.82,477.82
             300.82,475.36 298.91,473.27 296.00,472.00
             294.12,469.88 298.38,470.75 304.09,475.36
             302.75,470.62 298.10,465.93 296.62,466.75
             293.50,466.62 297.62,460.62 306.00,472.25
             306.89,471.58 306.07,467.45 305.45,467.91
             302.91,469.09 305.73,456.55 310.36,471.73
             311.87,472.52 308.88,463.12 307.00,461.62
             304.38,460.75 306.00,453.75 316.18,471.91
             318.15,471.29 314.38,467.88 316.25,464.25
             318.88,457.12 318.55,477.64 326.55,478.55
             326.55,478.55 314.18,486.55 314.18,486.55 Z" />
  </path>
  <path id="foot_left" class="animated" fill="#bf8c69" d="M 351.67,631.00
           C 345.79,628.28 337.00,629.67 337.00,629.67
             338.67,645.33 335.27,651.55 336.00,657.00
             337.12,663.17 347.18,674.91 350.33,660.33
             356.27,670.45 358.22,659.52 357.00,652.67
             357.00,652.67 362.33,649.00 361.33,641.00
             362.00,635.33 351.99,631.15 351.67,631.00 Z">
	<animate attributeName="d" keyTimes="0;.45;.5;.95;1" dur="5s" repeatCount="indefinite"
			values="M 351.67,631.00
           C 345.79,628.28 337.00,629.67 337.00,629.67
             338.67,645.33 335.27,651.55 336.00,657.00
             337.12,663.17 347.18,674.91 350.33,660.33
             356.27,670.45 358.22,659.52 357.00,652.67
             357.00,652.67 362.33,649.00 361.33,641.00
             362.00,635.33 351.99,631.15 351.67,631.00 Z;
			 M 351.67,631.00
           C 345.79,628.28 337.00,629.67 337.00,629.67
             338.67,645.33 335.27,651.55 336.00,657.00
             337.12,663.17 347.18,674.91 350.33,660.33
             356.27,670.45 358.22,659.52 357.00,652.67
             357.00,652.67 362.33,649.00 361.33,641.00
             362.00,635.33 351.99,631.15 351.67,631.00 Z;
			 M 351.67,631.00
           C 345.79,628.28 337.00,629.67 337.00,629.67
             338.67,645.33 339.73,655.36 341.09,658.55
             346.55,664.18 358.82,666.55 355.00,659.64
             358.55,666.82 361.27,659.36 358.18,654.91
             353.91,646.64 361.27,644.18 360.27,636.18
             360.94,630.51 351.99,631.15 351.67,631.00 Z;
			 M 351.67,631.00
           C 345.79,628.28 337.00,629.67 337.00,629.67
             338.67,645.33 339.73,655.36 341.09,658.55
             346.55,664.18 358.82,666.55 355.00,659.64
             358.55,666.82 361.27,659.36 358.18,654.91
             353.91,646.64 361.27,644.18 360.27,636.18
             360.94,630.51 351.99,631.15 351.67,631.00 Z;
			 M 351.67,631.00
           C 345.79,628.28 337.00,629.67 337.00,629.67
             338.67,645.33 335.27,651.55 336.00,657.00
             337.12,663.17 347.18,674.91 350.33,660.33
             356.27,670.45 358.22,659.52 357.00,652.67
             357.00,652.67 362.33,649.00 361.33,641.00
             362.00,635.33 351.99,631.15 351.67,631.00 Z" />
  </path>
  <path id="foot_right" class="animated" fill="#bf8c69" d="M 410.33,608.67
           C 410.33,608.67 426.33,610.33 426.33,610.33
             431.09,612.44 434.24,614.40 432.55,618.27
             426.51,627.58 428.72,635.70 429.18,635.36
             429.24,640.49 421.18,643.73 419.55,639.18
             420.82,641.91 416.58,645.49 414.09,638.82
             409.00,630.82 410.33,608.67 410.33,608.67 Z" >
	<animate attributeName="d" keyTimes="0;.45;.5;.95;1" dur="5s" repeatCount="indefinite"
			values="M 410.33,608.67
           C 410.33,608.67 426.33,610.33 426.33,610.33
             431.09,612.44 434.24,614.40 432.55,618.27
             426.51,627.58 428.72,635.70 429.18,635.36
             429.24,640.49 421.18,643.73 419.55,639.18
             420.82,641.91 416.58,645.49 414.09,638.82
             409.00,630.82 410.33,608.67 410.33,608.67 Z;
			 M 410.33,608.67
           C 410.33,608.67 426.33,610.33 426.33,610.33
             431.09,612.44 434.24,614.40 432.55,618.27
             426.51,627.58 428.72,635.70 429.18,635.36
             429.24,640.49 421.18,643.73 419.55,639.18
             420.82,641.91 416.58,645.49 414.09,638.82
             409.00,630.82 410.33,608.67 410.33,608.67 Z;
			 M 410.33,608.67
           C 410.33,608.67 426.33,610.33 426.33,610.33
             431.09,612.44 433.67,617.00 432.67,620.33
             428.68,624.49 428.33,637.33 428.33,637.33
             428.39,642.46 418.74,646.25 418.67,640.00
             420.17,648.94 411.15,644.22 410.33,639.33
             410.33,639.33 410.33,608.67 410.33,608.67 Z;
			 M 410.33,608.67
           C 410.33,608.67 426.33,610.33 426.33,610.33
             431.09,612.44 433.67,617.00 432.67,620.33
             428.68,624.49 428.33,637.33 428.33,637.33
             428.39,642.46 418.74,646.25 418.67,640.00
             420.17,648.94 411.15,644.22 410.33,639.33
             410.33,639.33 410.33,608.67 410.33,608.67 Z;
			 M 410.33,608.67
           C 410.33,608.67 426.33,610.33 426.33,610.33
             431.09,612.44 434.24,614.40 432.55,618.27
             426.51,627.58 428.72,635.70 429.18,635.36
             429.24,640.49 421.18,643.73 419.55,639.18
             420.82,641.91 416.58,645.49 414.09,638.82
             409.00,630.82 410.33,608.67 410.33,608.67 Z"/>
  </path>
  <path id="monitor3" fill="darkgray" d="M 282.50,391.75
           C 282.50,391.75 265.50,415.25 265.50,415.25
             263.45,420.55 266.00,428.00 266.00,428.00
             266.00,428.00 271.00,445.25 271.00,445.25
             271.00,445.25 328.75,423.75 328.75,423.75
             328.75,423.75 303.00,414.50 303.00,414.50
             303.00,414.50 295.64,410.91 298.25,405.25
             298.25,405.25 313.50,381.75 313.50,381.75
             313.50,381.75 282.50,391.75 282.50,391.75 Z" />
  <path id="monitor1" fill="silver" d="M 200.00,429.67
           C 200.00,437.67 201.48,442.97 211.67,439.33
             211.67,439.33 387.33,378.00 387.33,378.00
             387.33,378.00 387.67,356.67 387.67,356.67
             387.67,356.67 200.00,418.67 200.00,418.67
             200.00,418.67 200.00,429.67 200.00,429.67 Z" />
  <path id="monitor2" fill="black"
        d="M 200.00,418.00
           C 200.00,418.00 387.33,356.67 387.33,356.67
             387.33,356.67 390.50,267.25 390.50,267.25
             390.75,256.50 389.75,252.50 377.50,256.00
             377.50,256.00 214.50,300.00 214.50,300.00
             200.75,303.75 200.50,305.50 200.50,319.25
             200.50,319.25 200.00,418.00 200.00,418.00 Z" />
  <path id="cup_grip"
        fill="none" stroke="#ddd" stroke-width="3"
        d="M 228.18,471.24
           C 242.81,468.94 242.56,487.19 228.13,489.35" />
  <path id="cup_hole" fill="#ccc" d="M 199.09,466.52
           C 199.13,474.13 227.04,475.48 227.13,466.65
             227.22,457.83 199.04,458.91 199.09,466.52 Z" />
  <path id="coffe"
        fill="#420" d="M 226.77,473.38
           C 226.85,464.55 198.68,465.64 198.72,473.25
             198.72,473.25 226.77,473.38 226.77,473.38 Z" />
  <path id="cup" fill="#ddd" d="M 228.00,495.45
           C 228.00,505.82 197.82,505.27 197.64,496.00
             197.64,496.00 197.73,467.45 197.73,467.45
             197.82,458.23 228.11,455.67 228.00,467.55
             228.00,467.55 228.00,495.45 228.00,495.45 M 199.09,466.52
           C 199.13,474.13 227.04,475.48 227.13,466.65
             227.22,457.83 199.04,458.91 199.09,466.52 Z" />
  <path id="glass"
        fill="#87ceeb7a" stroke="#ddf" stroke-width="2"
        d="M 350.67,363.00
           C 339.67,367.33 340.67,390.33 351.33,385.33
             362.00,380.33 361.67,358.67 350.67,363.00 Z"/>
  <defs>
    <radialGradient id="face_gradient"
	  cx="0.5" cy="0.5" r="1" fx="0.7" fy="0.1">
      <stop offset="5%" stop-color="white"/>
      <stop offset="20%" stop-color="#ffcca9"/>
    </radialGradient>
  </defs>
  <path id="face" fill="url(#face_gradient)" d="M 396.55,438.00
           C 390.18,439.27 391.61,443.76 380.55,443.09
             368.88,444.63 330.50,393.00 347.97,380.73
             352.06,376.62 354.33,374.89 354.33,374.89
             353.06,372.81 352.00,369.56 352.00,367.75
             352.25,353.12 355.03,349.76 357.67,343.00
             363.91,328.09 386.64,316.18 412.07,318.40
             447.67,321.67 464.18,347.45 462.00,384.00
             459.82,420.55 437.27,431.82 405.45,448.00
             399.73,441.23 404.09,445.36 396.55,438.00 Z" />
  <path id="hair" fill="none" stroke="#eee" stroke-width="1.5" stroke-linecap="round"
        d="M 440.00,339.00
           C 428.00,300.33 499.67,332.67 490.33,300.33" />
  <path id="beard_back" fill="white" d="M 353.75,401.62
           C 353.75,401.62 362.41,429.62 370.00,436.91
             382.50,444.19 400.62,436.50 400.62,436.50
             400.62,436.50 374.83,530.30 362.50,539.75
             360.95,539.83 346.59,486.42 346.61,441.54
             338.75,420.38 334.01,397.07 343.62,390.25
             343.62,390.25 347.12,399.38 353.75,401.62 Z" />
  <path id="beard_front" fill="white" d="M 349.72,410.84
           C 352.09,425.69 370.00,436.91 370.00,436.91
             356.64,424.07 374.00,387.50 374.00,387.50
             374.00,387.50 366.75,384.00 366.75,384.00
             358.09,400.45 350.82,400.55 349.72,410.84 Z" />
  <path id="ear" fill="#dfac89" d="M 388.19,381.51
           C 410.33,384.46 381.25,417.59 380.56,400.94
             376.39,430.43 418.06,382.90 388.19,381.51 Z" />
  <path id="body" fill="#3a3356" d="M 452.33,416.33
           C 526.33,433.67 565.55,624.35 421.41,598.34
             408.33,628.33 389.67,599.67 367.36,626.61
             351.91,631.99 330.82,636.50 330.21,621.75
             326.73,591.92 326.04,546.47 334.20,540.57
             355.67,521.00 373.00,536.67 398.67,515.33
             398.67,515.33 390.33,498.67 390.33,498.67
             389.42,503.39 367.36,514.21 358.33,516.46
             309.00,569.33 311.00,522.67 314.00,490.67
             311.47,486.77 326.84,469.47 333.67,480.00
             333.67,480.00 346.01,491.49 354.86,487.32
             361.81,481.08 380.27,435.29 402.67,436.33
             413.50,427.25 442.12,416.25 452.33,416.33 Z" />
  <path id="cloth_crease" fill="#251e41" d="M 348.00,488.12
           C 350.30,488.43 351.34,488.27 352.74,488.04
             345.22,491.04 325.88,530.88 320.25,511.88
             324.12,524.25 346.75,491.62 348.00,488.12 Z
           M 390.50,497.75
           C 394.62,488.12 408.62,479.80 411.75,483.62
             405.35,482.63 396.25,492.38 401.00,496.38
             400.59,495.56 415.50,490.75 422.25,494.88
             411.62,494.50 405.75,499.00 406.12,501.88
             404.50,515.25 413.25,545.25 413.25,545.25
             413.25,545.25 390.50,497.75 390.50,497.75 Z
           M 352.36,530.36
           C 354.82,529.73 360.25,528.62 367.82,528.27
             375.39,527.92 403.36,533.45 403.36,533.45
             385.88,531.75 354.00,529.25 347.64,532.45
             347.64,532.44 352.18,530.41 352.36,530.36 Z
           M 375.38,619.38
           C 375.38,619.38 363.00,578.00 363.00,578.00
             359.62,575.25 352.12,578.62 352.12,578.62
             353.62,575.75 357.00,572.06 362.38,573.31
             360.00,569.81 350.50,560.50 350.50,560.50
             350.50,560.50 361.75,570.94 365.50,571.25
             363.75,568.19 365.38,563.69 365.38,563.69
             365.38,563.69 366.00,569.69 370.00,572.12
             370.00,572.12 387.19,577.00 394.12,577.75
             392.12,574.06 392.25,569.12 392.25,569.12
             392.25,569.12 393.50,574.75 396.75,577.00
             396.75,577.00 422.00,589.62 422.00,589.62
             418.91,627.55 390.18,605.73 375.38,619.38 Z" />
  <path id="cushion"
        fill="crimson" stroke="#800" stroke-width="1"
        d="M 416.64,587.40
           C 415.64,584.00 386.51,578.90 385.13,579.06
             384.91,576.36 367.00,574.00 367.00,574.00
             359.39,574.55 363.77,583.30 368.00,583.00
             368.00,583.00 448.91,606.00 448.91,606.00
             448.91,606.00 524.36,576.18 524.36,576.18
             524.36,576.18 516.96,564.32 511.31,564.81
             508.19,569.69 508.00,570.94 504.55,575.64
             493.43,578.02 478.73,581.27 469.45,589.09
             455.64,591.27 449.50,597.00 449.50,597.00
             449.50,597.00 419.82,585.64 416.64,587.40 Z" />
  <path id="chair" fill="#422" d="M 434.38,489.84
           L 543.75,453.93 543.75,453.93 526.00,691.50 
			 510.16,595.21 460.16,614.73 449.50,721.00 
			 441.41,616.29 381.25,599.89 367.00,691.50 
			 366.41,581.94 440.63,598.33 434.38,489.84 Z
           M 503.13,491.40
           L 495.31,586.62 514.84,579.60 526.56,480.47 
			 503.13,491.40 Z
           M 478.13,500.76
           L 452.34,507.79 455.47,602.24 473.44,595.99 
			 478.13,500.76 Z" />
  <defs>
	<radialGradient id="light_gradient"
	  cx="0.5" cy="0.7" r="1" fx="0.65" fy="0.0">
      <stop offset="0%" stop-color="#ffff8899"/>
      <stop offset="55%" stop-color="#ffff8800"/>
    </radialGradient>
	<linearGradient id="steam_grad" gradientTransform="rotate(90)">
		<stop offset="0" stop-color="#ffffff00">
			<animate dur="2s" attributeName="offset" from="1.0" to="-0.3" repeatCount="indefinite"/>
		</stop>
		<stop offset="0.2" stop-color="#fffd">
			<animate dur="2s" attributeName="offset" from="1.3" to="0" repeatCount="indefinite"/>
		</stop>
		<stop offset="0.3" stop-color="#ffffff00">
			<animate dur="2s" attributeName="offset" from="1.6" to="0.3" repeatCount="indefinite"/>
		</stop>
	</linearGradient>
  </defs>
  <path id="code1" class="animated" fill="none" stroke="aqua" stroke-width="3"
        d="M220.75,312.00Z">
	<animate attributeName="d" keyTimes="0;.12;1" dur="2s"
		values="M220.75,312.00L220.75,312.00Z;
		M220.75,312.00 L249.25,303.25Z;
		M220.75,312.00 L249.25,303.25Z" repeatCount="indefinite"/>
  </path>
  <path id="code2" class="animated" fill="none" stroke="aqua" stroke-width="3"
        d="M220.25,325.75Z">
	<animate attributeName="d" keyTimes="0;.12;.25;1" dur="2s" repeatCount="indefinite"
		values="M220.25,325.75L220.25,325.75Z;M220.25,325.75L220.25,325.75Z;
		M220.25,325.75L345.00,292.50Z;M220.25,325.75L345.00,292.50Z"/>
  </path>
  <path id="code3" class="animated" fill="none" stroke="aqua" stroke-width="3"
        d="M242.75,331.50Z">
	<animate attributeName="d" keyTimes="0;.25;.37;1" dur="2s" repeatCount="indefinite"
		values="M242.75,331.50L242.75,331.50Z;M242.75,331.50L242.75,331.50Z;
		M242.75,331.50L284.00,319.75Z;M242.75,331.50L284.00,319.75Z"/>
  </path>
  <path id="code4" class="animated" fill="none" stroke="aqua" stroke-width="3"
        d="M243.25,343.00Z">
	<animate attributeName="d" keyTimes="0;.37;.5;1" dur="2s" repeatCount="indefinite"
		values="M243.25,343.00L243.25,343.00Z;M243.25,343.00L243.25,343.00Z;
		M243.25,343.00L305.50,324.50Z;M243.25,343.00L305.50,324.50Z"/>
  </path>
  <path id="code5" class="animated" fill="none" stroke="aqua" stroke-width="3"
        d="M267.75,344.00Z">
	<animate attributeName="d" keyTimes="0;.5;.62;1" dur="2s" repeatCount="indefinite"
		values="M267.75,344.00L267.75,344.00Z;M267.75,344.00L267.75,344.00Z;
		M267.75,344.00L322.00,329.50Z;M267.75,344.00L322.00,329.50Z"/>
  </path>
  <path id="code6" class="animated" fill="none" stroke="aqua" stroke-width="3"
        d="M268.25,351.25Z">
	<animate attributeName="d" keyTimes="0;.62;.75;1" dur="2s" repeatCount="indefinite"
		values="M268.25,351.25L268.25,351.25Z;
				M268.25,351.25L268.25,351.25Z;
				M268.25,351.25L290.75,345.00Z;
				M268.25,351.25L290.75,345.00Z"/>
  </path>
  <path id="code7" class="animated" fill="none" stroke="aqua" stroke-width="3"
        d="M247.00,368.75Z">
	<animate attributeName="d" keyTimes="0;.75;.87;1" dur="2s" repeatCount="indefinite"
		values="M247.00,368.75L247.00,368.75Z;M247.00,368.75L247.00,368.75Z;
		M247.00,368.75L274.00,360.75Z;M247.00,368.75L274.00,360.75Z"/>
  </path>
  <path id="code8" class="animated" fill="none" stroke="aqua" stroke-width="3"
        d="M222.00,388.00Z">
	<animate attributeName="d" keyTimes="0;.87;.99;1" dur="2s" repeatCount="indefinite"
		values="M222.00,388.00L222.00,388.00Z;M222.00,388.00L222.00,388.00Z;
		M222.00,388.00L260.50,375.75Z;M222.00,388.00L260.50,375.75Z"/>
  </path>
  <path id="steam" class="animated" fill="url(#steam_grad)" d="M 212.36,464.64
           C 212.36,464.64 218.73,456.55 205.55,447.64
             192.36,438.73 215.73,447.09 215.55,438.36
             215.36,429.64 199.91,414.64 199.91,414.64
             199.91,414.64 225.64,430.55 226.00,438.45
             226.36,446.36 209.82,446.27 214.45,451.00
             219.09,455.73 212.36,464.64 212.36,464.64 Z"/>
  <path id="eye" class="animated" fill="black" d="M 354.93,377.34
           C 352.48,374.89 354.04,369.21 356.61,370.71
             358.61,371.87 360.93,376.98 356.84,375.16
             358.29,377.22 358.65,378.79 358.39,379.82
             358.03,381.24 356.49,381.66 355.01,380.99
             351.48,379.07 353.30,376.80 354.93,377.34 Z">
	<animate attributeName="d" values="M 354.93,377.34
           C 352.48,374.89 354.04,369.21 356.61,370.71
             358.61,371.87 360.93,376.98 356.84,375.16
             358.29,377.22 358.65,378.79 358.39,379.82
             358.03,381.24 356.49,381.66 355.01,380.99
             351.48,379.07 353.30,376.80 354.93,377.34 Z;
			 M 355.44,377.12
           C 352.99,374.68 352.93,373.94 355.50,375.44
             357.50,376.60 359.65,377.88 355.56,376.06
             357.01,378.12 358.70,377.35 358.44,378.38
             357.06,378.69 357.29,378.98 355.81,378.31
             352.28,376.39 353.81,376.59 355.44,377.12 Z;
			 M 354.93,377.34
           C 352.48,374.89 354.04,369.21 356.61,370.71
             358.61,371.87 360.93,376.98 356.84,375.16
             358.29,377.22 358.65,378.79 358.39,379.82
             358.03,381.24 356.49,381.66 355.01,380.99
             351.48,379.07 353.30,376.80 354.93,377.34 Z;
			 M 354.93,377.34
           C 352.48,374.89 354.04,369.21 356.61,370.71
             358.61,371.87 360.93,376.98 356.84,375.16
             358.29,377.22 358.65,378.79 358.39,379.82
             358.03,381.24 356.49,381.66 355.01,380.99
             351.48,379.07 353.30,376.80 354.93,377.34 Z"
			 keyTimes="0;.01;.1;1" dur="1.8s" repeatCount="indefinite"/>
  </path>
  <path id="light" class="animated" fill="url(#light_gradient)" d="M 424.00,223.00
           C 424.00,223.00 512.00,237.00 512.00,237.00
             512.00,237.00 646.00,581.00 646.00,581.00
             626.54,802.72 40.00,724.00 104.00,475.00
             104.00,475.00 424.00,223.00 424.00,223.00 Z" >
    <animate attributeName="opacity" dur="5s" values="1;1;0;1;1;0;1;0;1;1;0;1" 
	keyTimes="0;.24;.25;.26;.29;.30;.31;.32;.33;.97;.99;1" repeatCount="indefinite"/>
  </path>
</svg>
