<svg xmlns="http://www.w3.org/2000/svg"><svg id="wall_floor_hanger_hat_window_blanket" viewBox="0 100 1000 650"><style>.slogan{font-size:30px;font-weight:600;font-family:cursive;transform:skew(-1deg,-15deg)}</style><defs><radialGradient id="sky_gradient" cx="1" cy="1" r="7" fx=".8" fy=".1"><stop offset="0%" stop-color="#346"/><stop offset="15%" stop-color="#003"/></radialGradient><linearGradient id="hanger_gradient" gradientTransform="rotate(50)"><stop offset="50%"/><stop offset="90%" stop-color="gray"/></linearGradient><marker id="dot" viewBox="0 0 10 10" refX="5" refY="5" markerWidth="5" markerHeight="5"><circle cx="5" cy="5" r="5"/></marker></defs><path id="floor" fill="#303" d="M0 484h1000v266H0z"/><path id="wall_right" fill="#204" d="M478 100v384l522 186V100z"/><path id="wall_left" fill="#408" d="M0 100v570l479-186V100z"/><path id="frame" fill="#88a" stroke="#333" stroke-width="2" d="M190 170v80l190-50v-80z"/><text x="210" y="255" class="slogan">find</text><text x="250" y="290" class="slogan font-red" fill="#813">S V O C</text><path id="clock" fill="#447" stroke="#420" stroke-width="5" d="M35.33 154c-60 15.33-70 136-.33 122s60.33-137.33.33-122z"/><path id="clock_numbers" fill="none" marker-start="url(#dot)" marker-mid="url(#dot)" marker-end="url(#dot)" d="M36.75 161.5 77 203.25l-17.5-37.5 10.5 18-32.25 81.75L61 250l12-22-60.25 37.75L12 175"/><path id="clock_arrow2" fill="none" stroke="#000" stroke-width="2" d="m36 216.25 28.5 32.5"/><path id="clock_arrow1" fill="none" stroke="#000" stroke-width="3" d="m36 216.25 24.67-19.58"/><path id="hanger" fill="#310" stroke="#200" stroke-width="1" d="M5.67 345 149 301.33l.33 28L6.67 373l-1-28z"/><path id="hat" fill="#2a2346" d="M65.33 299.33c40.67 16 65.34 82 38 108.67 0 0 6.67 38-8.66 98-2.59 7.22.86-52.13-9.34-64.67-2.28 4-8.5 13.92-16.66 18-28 14-44-34.66-35.34-65.33 8.67-30.67-8.66-110.67 32-94.67z"/><circle id="hat_ball" fill="#2a2346" cx="94" cy="526" r="15"/><path id="hat_crease" fill="#00000099" d="M92.33 471.33c-1.33-19.66-5.66-38-29.66-66.66-10.64.15-18.85-45.74-8.67-46.34-5.01.27 4.8 42.02 11.33 41.67 5.67 1.33 2.34-17 7.34-19.33L70.33 404c.62-3.64 13-11 13-11-6.66 4-10.16 15.95-5.66 16.67 8.68.3 18.47 61.8 14.66 61.66z"/><path id="hanger_unit" fill="none" stroke="url(#hanger_gradient)" stroke-width="2" stroke-linecap="round" d="M139.33 321.67c23.55 4.08 23.67 2.08 24-8.34m-54 18c22.85 4.85 22.67 5.22 22.67-10.66M22.33 356.33c21.67 4.94 21.67 4.4 22-10.66"/><path id="window_frame" fill="#403" d="M692 82v241l260 75V157z"/><path id="window_left" fill="#003" stroke="#124" stroke-width="2" d="m702 92 115 33v228.17L702 320z"/><path id="window_crack_tape" fill="none" stroke="#dd77" stroke-width="8" d="m754.5 330 29-26.5 31-7m-1 43.75-66.88-70.63m67.13 48.13L794 278.5l-8.88-55.75m-39 75.87 18.76-24.37m9.87-26.75 24-3.75"/><path id="sky" fill="url(#sky_gradient)" d="m827 128 115 32v230l-115-34z"/><path id="blanket" fill="#325" d="M680 653c-14.17 5.5-31.5 35.17-3 49.5 0 0 115 66.83 162.67 66.83 47.66 0 159.83-87.16 159.83-87.16 2.93-1.05 4.33-16-1-16.67 7-2 9.06-40.62.33-38 6.62-1.86 6.55-8.33 1.35-12.23 0 0-118.51-69.6-174.51-69.6C769.67 545.67 680 599 680 599c-6.5 7.83-19.87 31.4 0 54z"/><path id="blanket_patch" fill="#243" stroke="#888" stroke-width="3" stroke-dasharray=".5 3" d="m713.75 643 43.5 15.25c-4.91-8-3-22.75 33-40.75l-39-14.12C713 621.5 710.48 634.73 713.75 643z"/><path id="blanket_patch2" fill="#423" stroke="#999" stroke-width="3" stroke-dasharray=".5 3" d="M856.75 703.62 926.12 673c6.38 9.62 2.79 21.91-.85 27l-71.45 36.55c4.73-4.73 10.8-18.17 2.93-32.93z"/><path id="blanket_crease" fill="#00000077" d="m1000.67 627.67-134.09 60.5c-6.33 2.91-11.75 5.5-21.25 1.5l-71.75-25c-4.5-5.13-6.12-7.38-4.25-13 0 0-2.75 4-1.12 10.4l-75.88-27.15c-1.5-1.88 2.75-7.75 2.75-7.75s-2.62 4-4.87 5.87c-1.56.69-5.81-8.56-5.81-8.56s4.25 8.31 4.06 11.56c-.81 1.75-7.13 5.63-7.13 5.63s8.19-5.94 11.69-4.75c0 0 41.69 13 40.81 18-3 5.87 1.25 11.25 1.25 11.25s-2.37-11.75 1.88-12.25 62.25 19.56 56.75 24.12c-2.88 1.63-3.13 4.63-3.13 4.63s2.13-3.63 6-3c-2.75 2.25.25 8 .25 8s-.12-8.13 3.75-8c3.88.12 39 14.5 39 14.5 18.48 4.59 19.05 1.68 33.94-2.14 0 0 42.9-20.73 48.56-20.86 8.89-.59 8.25 11 8.25 11s2.82-12.14-3.54-14.5c-6.37-2.37 75.54-35.67 75.54-35.67l-1.66-4.33zm-1.97 37.6-33.58 18.52c3.27-4.37 3.27-13.27 3.27-13.27s-2.54 11.81-10 16.43l-59.83 31.8c3.18-3.94 3.29-13.69 3.29-13.69s-3.09 12.34-9.76 17.55l-43.39 23.33h-19.67l-77.88-37.99c-4.74-2.84-6.24-12.84-6.24-12.84s-.81 8.1 1.37 10.62l-64.22-31.47c-1.73-1.39-2.03-7.4-2.03-7.4s0 5.53-1.25 7.12c-1.67.44-6.75-4-6.75-4s2.98 4.11 5.17 5.92c1.22 1-4.42 4.08-4.42 4.08s4.48-2.75 8.5-1.37c9.8 3.36 25 12.87 25 12.87-7.2 4.12-2.87 8.75-2.87 8.75s.62-8.75 8.07-6.93l67.3 33.68c-5 2.63-3.5 8.5-3.5 8.5s.5-9.37 13-4l37.75 17.79 25.67 1 78.28-43.18c5.18.64 4.93 4.77 4.93 4.77s.75-4.75-1.38-6.25l66.83-37.34-1.66-3zm-316.45-11.69c1.47.06 72.66 31.6 72.66 31.6-1.44-1.92 1.11-10.49 2.59-9.47-.14 1.56-1.88 9.5 1.46 11.38l67.37 30.24c2.24 1.8 5-7 5-7s-2.6 7.09-1 8.12c1.61 1.03 5.67-.66 5.67-.66s-5 2.09-5.67 3.54c-1.06 2.37-1.33 10.34-1.33 10.34s-.73-7.06-2.45-8.25c-1.46-4.63-34.14-15.35-34.14-15.35-5.03-.86-5.4 6.21-4.91 6.51-3.51-.9-.31-8.68.38-8.75l-56.13-26.37c-2.87-.38-4 4.5-2.63 8.12-3.25-.98-2.04-9.01.05-8.97 0 0-46.52-21.78-47.67-22.15-3.12-1-4.75-.75-4.75-.75.16-1.05 2.5-2.25 5.5-2.13z"/><path id="desk_front1" fill="#530" d="m262.36 516.92-1.11 162.58L241 689.75l.66-167.75z"/><path id="desk_front2" fill="#530" d="m602.5 411.5 21.5-10-.5 146-21.5 10z"/><path id="desk inside" fill="#321" d="m602.34 556.96-101.01-41.63 3.34-130.66L603 413.33z"/><path id="desk outside" fill="#321" d="m241.33 528.67-105-45.34 2.01 142.88L241 689z"/><path id="desk upfront" fill="#421" d="m641.09 399-405.4 147.88.4-16.88 405.27-147.09z"/><path id="desk upside" fill="#310" d="M106.54 488.5 235.75 547l.34-16.91-129.93-60.97z"/><path id="desk board" fill="#210" d="m236.33 531 405.08-148.1L478.67 336 106 468.75z"/><path id="stand base" fill="#ae0014" d="M472.92 400.59c67.51 20.14 129.91-25.34 82.29-39.55-47.62-14.2-149.81 19.41-82.29 39.55z"/><path id="stand joint" fill="none" stroke-linecap="round" stroke-linejoin="round" stroke="#be0024" stroke-width="20" d="m508.33 381.86 76.05-112.4-90.63-66.61"/><path id="stand head" fill="#dc143c" d="M460.42 184.12c7.29-25.5 41.4-19.26 35.41 6.24L491.67 213c11.72 1.82 23.95 25.24 23.95 25.24l-97.91-15.61s22.13-16.4 37.24-15.62l5.47-22.89z"/><path id="keyboard1" fill="silver" stroke="gray" stroke-width="1" d="m424 442-49-20.33-109.82 42.47c-6.72 2.6-2.09 6.95-2.09 6.95s20.12 11.59 33.84 18.4c4.27 2.12 11.57.39 11.57.39L424 442z"/><path id="keyboard2" fill="#fff" stroke="gray" stroke-width=".5" d="m294.88 485.25 5.74 2.63 92.63-35.76-5.87-2.24-92.5 35.37zm-8.76-4.5 4.76 2.5 94.24-35.5-10.87-2.87-88.13 35.87zm-3.12-2.5-4.75-2.13 88-35.87s4.63 2.75 5.13 3.13c.5.37-88.38 34.87-88.38 34.87zm-6.62-3.5-4.76-2.75L359 437.12l5.12 2.76-87.74 34.87zm-7.76-4.63-5.12-2.62 88.25-34 5.13 2.62-88.26 34z"/><path id="keyboard3" fill="none" stroke="silver" stroke-width="2" d="m271.38 463.5 7.24 4.25-2 1 6.5 4.25 3.38-.88 6.12 3.13 4.38-.13 8 4.13-3.88 1.87 8.76 5 7.74-2.62-8.74-5.12 1.74-.63-7.12-5.13-4.38 1.38-5.87-5-4 1.25-6-4.37 1.63-.63-6.88-5 7.12-2.25 6 4.62-.87 1 5.87 4.13 4.63-1.37 5.13 3.74 4-1.12 16.5 11.25m-1.26-8.37-7.24-5.5-4.63 1.5-5.5-4.5-3.87 1.87-6-4.37 2-1.5-6.63-4.88 8.87-3.12 6.5 4.74-3.24 1.63 4.5 4.75 6-2.62 4.87 5.12 4-1.62 7.75 5.37 7.38-2.13-7.88-5.87-4.25 1.37-5.13-4.74-4 1.5-5.37-4.63 3.75-2-5.88-3.87 6.88-2.88 5.38 4.5-2.38 1.38 4.75 4.37 4.5-1.63 5.25 4.63 4.75-1.25 5.5 6.62 7.25-2-5.5-7.5-4 1.5-5.25-5.24-4.37 2.37-6.5-4.87 3.74-1.13-5.62-4.63 7.25-2.74s4.75 4.5 4.87 4.5c.13 0-2.12 1.37-2.12 1.37l6 3.87 5.12-1.87 4.88 4.37-1.62-5.62-6.88-3.88 2.75-1.24-6.5-3.5 5.87-2.38 6.5 3.38"/></svg><svg id="cattail_hand_foot_anim" viewBox="0 100 1000 650"><path id="cat_tail" fill="none" stroke="#bebece" stroke-width="10" stroke-linecap="round" d="M898.88 585.62c-28.88 28.5-2.5 38.76-4.13 49.63-2.11 21.66-59.42 12.78-58.13-.5"><animate attributeName="d" dur="2s" begin="1.5s" repeatCount="indefinite" keyTimes="0;.70;.9;1" values="M 898.88,585.62 C 870.00,614.12 896.38,624.38 894.75,635.25 892.64,656.91 835.33,648.03 836.62,634.75; M 898.88,585.62 C 870.00,614.12 896.38,624.38 894.75,635.25 892.64,656.91 835.33,648.03 836.62,634.75; M 898.88,585.62 C 870.00,614.12 896.38,624.38 894.75,635.25 892.64,656.91 840.00,648.00 850.73,623.27; M 898.88,585.62 C 870.00,614.12 896.38,624.38 894.75,635.25 892.64,656.91 835.33,648.03 836.62,634.75"/></path><path id="hand" fill="#ffcca9" stroke="#af7c59" d="M314.18 486.55s-10.54-5.1-12.36-8.73c-1-2.46-2.91-4.55-5.82-5.82-1.88-2.12 2.38-1.25 8.09 3.36-1.34-4.74-5.99-9.43-7.47-8.61-3.12-.13 1-6.13 9.38 5.5.89-.67-4.63-9.21-5.25-8.75-4.13-1.25 1.37-6.62 9.61 8.23 1.51.79-1.48-8.61-3.36-10.11-2.62-.87-1-7.87 9.18 10.29 1.97-.62-1.8-4.03.07-7.66 2.63-7.13 2.3 13.39 10.3 14.3l-12.37 8z"><animate attributeName="d" keyTimes="0;.2;.4;.6;.8;1" dur=".3s" repeatCount="indefinite" values="M 314.18,486.55 C 314.18,486.55 303.64,481.45 301.82,477.82 300.82,475.36 298.91,473.27 296.00,472.00 294.12,469.88 298.38,470.75 304.09,475.36 302.75,470.62 298.10,465.93 296.62,466.75 293.50,466.62 297.62,460.62 306.00,472.25 306.89,471.58 301.37,463.04 300.75,463.50 296.62,462.25 302.12,456.88 310.36,471.73 311.87,472.52 308.88,463.12 307.00,461.62 304.38,460.75 306.00,453.75 316.18,471.91 318.15,471.29 314.38,467.88 316.25,464.25 318.88,457.12 318.55,477.64 326.55,478.55 326.55,478.55 314.18,486.55 314.18,486.55 Z; M 318.10,486.12 C 318.10,486.12 311.14,478.98 309.32,475.35 308.32,472.89 305.66,473.64 302.75,472.38 303.62,470.38 304.94,469.88 310.40,472.31 309.06,467.57 306.86,467.68 305.38,468.50 302.25,468.37 304.89,458.98 313.27,470.61 314.69,470.01 313.00,465.12 309.25,463.75 305.12,462.50 319.00,460.38 316.01,470.35 317.88,471.62 319.50,464.15 314.38,462.25 311.82,461.38 319.18,453.17 322.88,471.38 324.85,470.75 326.88,467.00 327.38,466.38 338.12,461.12 324.50,469.75 330.47,478.12 330.47,478.12 318.10,486.12 318.10,486.12 Z; M 315.22,487.48 C 315.22,487.48 301.70,480.07 299.88,476.44 298.88,473.98 296.39,470.87 292.70,472.39 289.96,472.43 294.52,464.79 299.44,472.06 298.10,467.32 297.86,464.93 296.38,465.75 293.25,465.62 297.88,459.19 302.00,470.69 302.89,470.02 300.81,462.42 300.19,462.88 296.06,461.62 300.69,454.69 305.31,470.31 306.82,471.10 306.82,465.31 304.94,463.81 302.32,462.94 305.69,456.75 309.56,471.00 311.53,470.38 309.32,469.63 311.19,466.00 315.56,461.75 307.88,472.62 324.57,478.78 324.57,478.78 315.22,487.48 315.22,487.48 Z; M 316.79,488.25 C 316.79,488.25 306.25,483.15 304.43,479.52 303.43,477.06 304.53,476.27 301.62,475.00 299.75,472.88 304.25,472.19 306.70,477.06 305.36,472.32 301.39,469.61 299.91,470.43 296.79,470.30 303.78,464.00 308.61,473.95 309.50,473.28 302.56,464.85 301.94,465.31 297.81,464.06 302.88,458.88 312.97,473.43 314.48,474.22 309.94,466.56 308.06,465.06 305.44,464.19 305.88,457.06 318.79,473.61 320.76,472.99 316.99,469.58 318.86,465.95 321.49,458.82 321.16,479.34 329.16,480.25 329.16,480.25 316.79,488.25 316.79,488.25 Z; M 315.83,486.64 C 315.83,486.64 306.34,479.41 304.52,475.78 303.52,473.32 302.56,471.84 299.65,470.57 297.77,468.45 301.61,467.70 306.65,473.91 305.31,469.17 304.39,468.52 301.91,465.83 298.79,465.70 302.65,459.78 309.65,472.65 310.54,471.98 305.62,462.93 305.00,463.39 300.87,462.14 307.13,456.78 313.19,471.77 315.11,472.59 313.78,464.04 313.17,464.04 310.55,463.17 315.00,454.64 317.83,472.00 319.80,471.38 317.56,469.59 319.43,465.96 322.06,458.83 320.20,477.73 328.20,478.64 328.20,478.64 315.83,486.64 315.83,486.64 Z; M 314.18,486.55 C 314.18,486.55 303.64,481.45 301.82,477.82 300.82,475.36 298.91,473.27 296.00,472.00 294.12,469.88 298.38,470.75 304.09,475.36 302.75,470.62 298.10,465.93 296.62,466.75 293.50,466.62 297.62,460.62 306.00,472.25 306.89,471.58 306.07,467.45 305.45,467.91 302.91,469.09 305.73,456.55 310.36,471.73 311.87,472.52 308.88,463.12 307.00,461.62 304.38,460.75 306.00,453.75 316.18,471.91 318.15,471.29 314.38,467.88 316.25,464.25 318.88,457.12 318.55,477.64 326.55,478.55 326.55,478.55 314.18,486.55 314.18,486.55 Z"/></path><path id="foot_left" fill="#bf8c69" d="M351.67 631c-5.88-2.72-14.67-1.33-14.67-1.33 1.67 15.66-1.73 21.88-1 27.33 1.12 6.17 11.18 17.91 14.33 3.33 5.94 10.12 7.89-.81 6.67-7.66 0 0 5.33-3.67 4.33-11.67.67-5.67-9.34-9.85-9.66-10z"><animate attributeName="d" keyTimes="0;.45;.5;.95;1" dur="5s" repeatCount="indefinite" values="M 351.67,631.00 C 345.79,628.28 337.00,629.67 337.00,629.67 338.67,645.33 335.27,651.55 336.00,657.00 337.12,663.17 347.18,674.91 350.33,660.33 356.27,670.45 358.22,659.52 357.00,652.67 357.00,652.67 362.33,649.00 361.33,641.00 362.00,635.33 351.99,631.15 351.67,631.00 Z; M 351.67,631.00 C 345.79,628.28 337.00,629.67 337.00,629.67 338.67,645.33 335.27,651.55 336.00,657.00 337.12,663.17 347.18,674.91 350.33,660.33 356.27,670.45 358.22,659.52 357.00,652.67 357.00,652.67 362.33,649.00 361.33,641.00 362.00,635.33 351.99,631.15 351.67,631.00 Z; M 351.67,631.00 C 345.79,628.28 337.00,629.67 337.00,629.67 338.67,645.33 339.73,655.36 341.09,658.55 346.55,664.18 358.82,666.55 355.00,659.64 358.55,666.82 361.27,659.36 358.18,654.91 353.91,646.64 361.27,644.18 360.27,636.18 360.94,630.51 351.99,631.15 351.67,631.00 Z; M 351.67,631.00 C 345.79,628.28 337.00,629.67 337.00,629.67 338.67,645.33 339.73,655.36 341.09,658.55 346.55,664.18 358.82,666.55 355.00,659.64 358.55,666.82 361.27,659.36 358.18,654.91 353.91,646.64 361.27,644.18 360.27,636.18 360.94,630.51 351.99,631.15 351.67,631.00 Z; M 351.67,631.00 C 345.79,628.28 337.00,629.67 337.00,629.67 338.67,645.33 335.27,651.55 336.00,657.00 337.12,663.17 347.18,674.91 350.33,660.33 356.27,670.45 358.22,659.52 357.00,652.67 357.00,652.67 362.33,649.00 361.33,641.00 362.00,635.33 351.99,631.15 351.67,631.00 Z"/></path><path id="foot_right" fill="#bf8c69" d="m410.33 608.67 16 1.66c4.76 2.11 7.91 4.07 6.22 7.94-6.04 9.31-3.83 17.43-3.37 17.09.06 5.13-8 8.37-9.63 3.82 1.27 2.73-2.97 6.31-5.46-.36-5.09-8-3.76-30.15-3.76-30.15z"><animate attributeName="d" keyTimes="0;.45;.5;.95;1" dur="5s" repeatCount="indefinite" values="M 410.33,608.67 C 410.33,608.67 426.33,610.33 426.33,610.33 431.09,612.44 434.24,614.40 432.55,618.27 426.51,627.58 428.72,635.70 429.18,635.36 429.24,640.49 421.18,643.73 419.55,639.18 420.82,641.91 416.58,645.49 414.09,638.82 409.00,630.82 410.33,608.67 410.33,608.67 Z; M 410.33,608.67 C 410.33,608.67 426.33,610.33 426.33,610.33 431.09,612.44 434.24,614.40 432.55,618.27 426.51,627.58 428.72,635.70 429.18,635.36 429.24,640.49 421.18,643.73 419.55,639.18 420.82,641.91 416.58,645.49 414.09,638.82 409.00,630.82 410.33,608.67 410.33,608.67 Z; M 410.33,608.67 C 410.33,608.67 426.33,610.33 426.33,610.33 431.09,612.44 433.67,617.00 432.67,620.33 428.68,624.49 428.33,637.33 428.33,637.33 428.39,642.46 418.74,646.25 418.67,640.00 420.17,648.94 411.15,644.22 410.33,639.33 410.33,639.33 410.33,608.67 410.33,608.67 Z; M 410.33,608.67 C 410.33,608.67 426.33,610.33 426.33,610.33 431.09,612.44 433.67,617.00 432.67,620.33 428.68,624.49 428.33,637.33 428.33,637.33 428.39,642.46 418.74,646.25 418.67,640.00 420.17,648.94 411.15,644.22 410.33,639.33 410.33,639.33 410.33,608.67 410.33,608.67 Z; M 410.33,608.67 C 410.33,608.67 426.33,610.33 426.33,610.33 431.09,612.44 434.24,614.40 432.55,618.27 426.51,627.58 428.72,635.70 429.18,635.36 429.24,640.49 421.18,643.73 419.55,639.18 420.82,641.91 416.58,645.49 414.09,638.82 409.00,630.82 410.33,608.67 410.33,608.67 Z"/></path></svg><svg id="monitor_cup_glass_face_body_cushion_chair_cat" viewBox="0 100 1000 650"><path id="monitor3" fill="#a9a9a9" d="m282.5 391.75-17 23.5c-2.05 5.3.5 12.75.5 12.75l5 17.25 57.75-21.5L303 414.5s-7.36-3.59-4.75-9.25l15.25-23.5-31 10z"/><path id="monitor1" fill="silver" d="M200 429.67c0 8 1.48 13.3 11.67 9.66L387.33 378l.34-21.33-187.67 62v11z"/><path id="monitor2" fill="#000" d="m200 418 187.33-61.33 3.17-89.42c.25-10.75-.75-14.75-13-11.25l-163 44c-13.75 3.75-14 5.5-14 19.25L200 418z"/><path id="cup_grip" fill="none" stroke="#ddd" stroke-width="3" d="M228.18 471.24c14.63-2.3 14.38 15.95-.05 18.11"/><path id="cup_hole" fill="#ccc" d="M199.09 466.52c.04 7.61 27.95 8.96 28.04.13.09-8.82-28.09-7.74-28.04-.13z"/><path id="coffe" fill="#420" d="M226.77 473.38c.08-8.83-28.09-7.74-28.05-.13l28.05.13z"/><path id="cup" fill="#ddd" d="M228 495.45c0 10.37-30.18 9.82-30.36.55l.09-28.55c.09-9.22 30.38-11.78 30.27.1v27.9m-28.91-28.93c.04 7.61 27.95 8.96 28.04.13.09-8.82-28.09-7.74-28.04-.13z"/><path id="glass" fill="#87ceeb7a" stroke="#ddf" stroke-width="2" d="M350.67 363c-11 4.33-10 27.33.66 22.33 10.67-5 10.34-26.66-.66-22.33z"/><defs><radialGradient id="face_gradient" cx=".5" cy=".5" r="1" fx=".7" fy=".1"><stop offset="5%" stop-color="#fff"/><stop offset="20%" stop-color="#ffcca9"/></radialGradient></defs><path id="face" fill="url(#face_gradient)" d="M396.55 438c-6.37 1.27-4.94 5.76-16 5.09-11.67 1.54-50.05-50.09-32.58-62.36 4.09-4.11 6.36-5.84 6.36-5.84-1.27-2.08-2.33-5.33-2.33-7.14.25-14.63 3.03-17.99 5.67-24.75 6.24-14.91 28.97-26.82 54.4-24.6 35.6 3.27 52.11 29.05 49.93 65.6-2.18 36.55-24.73 47.82-56.55 64-5.72-6.77-1.36-2.64-8.9-10z"/><path id="hair" fill="none" stroke="#eee" stroke-width="1.5" stroke-linecap="round" d="M440 339c-12-38.67 59.67-6.33 50.33-38.67"/><path id="beard_back" fill="#fff" d="M353.75 401.62s8.66 28 16.25 35.29c12.5 7.28 30.62-.41 30.62-.41s-25.79 93.8-38.12 103.25c-1.55.08-15.91-53.33-15.89-98.21-7.86-21.16-12.6-44.47-2.99-51.29 0 0 3.5 9.13 10.13 11.37z"/><path id="beard_front" fill="#fff" d="M349.72 410.84c2.37 14.85 20.28 26.07 20.28 26.07-13.36-12.84 4-49.41 4-49.41l-7.25-3.5c-8.66 16.45-15.93 16.55-17.03 26.84z"/><path id="ear" fill="#dfac89" d="M388.19 381.51c22.14 2.95-6.94 36.08-7.63 19.43-4.17 29.49 37.5-18.04 7.63-19.43z"/><path id="body" fill="#3a3356" d="M452.33 416.33c74 17.34 113.22 208.02-30.92 182.01-13.08 29.99-31.74 1.33-54.05 28.27-15.45 5.38-36.54 9.89-37.15-4.86-3.48-29.83-4.17-75.28 3.99-81.18 21.47-19.57 38.8-3.9 64.47-25.24l-8.34-16.66c-.91 4.72-22.97 15.54-32 17.79C309 569.33 311 522.67 314 490.67c-2.53-3.9 12.84-21.2 19.67-10.67 0 0 12.34 11.49 21.19 7.32 6.95-6.24 25.41-52.03 47.81-50.99 10.83-9.08 39.45-20.08 49.66-20z"/><path id="cloth_crease" fill="#251e41" d="M348 488.12c2.3.31 3.34.15 4.74-.08-7.52 3-26.86 42.84-32.49 23.84 3.87 12.37 26.5-20.26 27.75-23.76zm42.5 9.63c4.12-9.63 18.12-17.95 21.25-14.13-6.4-.99-15.5 8.76-10.75 12.76-.41-.82 14.5-5.63 21.25-1.5-10.63-.38-16.5 4.12-16.13 7-1.62 13.37 7.13 43.37 7.13 43.37l-22.75-47.5zm-38.14 32.61c2.46-.63 7.89-1.74 15.46-2.09 7.57-.35 35.54 5.18 35.54 5.18-17.48-1.7-49.36-4.2-55.72-1 0-.01 4.54-2.04 4.72-2.09zm23.02 89.02L363 578c-3.38-2.75-10.88.62-10.88.62 1.5-2.87 4.88-6.56 10.26-5.31-2.38-3.5-11.88-12.81-11.88-12.81s11.25 10.44 15 10.75c-1.75-3.06-.12-7.56-.12-7.56s.62 6 4.62 8.43c0 0 17.19 4.88 24.12 5.63-2-3.69-1.87-8.63-1.87-8.63s1.25 5.63 4.5 7.88L422 589.62c-3.09 37.93-31.82 16.11-46.62 29.76z"/><path id="cushion" fill="#dc143c" stroke="#800" stroke-width="1" d="M416.64 587.4c-1-3.4-30.13-8.5-31.51-8.34-.22-2.7-18.13-5.06-18.13-5.06-7.61.55-3.23 9.3 1 9l80.91 23 75.45-29.82s-7.4-11.86-13.05-11.37c-3.12 4.88-3.31 6.13-6.76 10.83-11.12 2.38-25.82 5.63-35.1 13.45-13.81 2.18-19.95 7.91-19.95 7.91s-29.68-11.36-32.86-9.6z"/><path id="chair" fill="#422" d="m434.38 489.84 109.37-35.91L526 691.5l-15.84-96.29-50 19.52L449.5 721l-8.09-104.71-60.16-16.4L367 691.5l-.59-109.56 74.22 16.39-6.25-108.49zm68.75 1.56-7.82 95.22 19.53-7.02 11.72-99.13-23.43 10.93zm-25 9.36-25.79 7.03 3.13 94.45 17.97-6.25 4.69-95.23z"/><path id="cat" fill="#ccd" d="M909.5 456s-1.25-13 1.75-14.25 8.5 9.5 12 11.75 10 5.75 17.25 7.75 16.25-6 18.25-3.25-4.25 9-5 14c-2.5 11.75 13 66.75 7.25 73.67 1.06.33-1.5 41.08-15.75 46.83-2.52 7.32-12.43 7.77-16.92 8.17 3.4.24 19.67 6.58 26.67 11.66 8.65 9.22-4.85 15.84-10.33 10-5.17-4.58-32.03-12.18-38-7-6.17-2.08-5.42-6.83-3.42-12.58C882.92 604.75 846 582 848 568c-1 12-5 10-14.33 9.33-10.67-6-21.34-15-32.67-14.33-12.67-.67-11.67-23.33 6.33-16.33.03-.41 27.88 9.15 27.67 12.33-2.37-.53.44-27.42 12.67-24.67L858 535l11.33-11c-5.12-.3-7.08-7.75-6.33-11-.75-4.25 20.67-37.58 31.5-38.5 1.25-7.75 10.25-17.25 15-18.5z"/><path id="cat_paw_right" fill="none" stroke="#333" stroke-width="1" stroke-linecap="round" d="m960.91 545.55-21.73 4.63s-6.43 2.57-7.56 6.32c-1.12 3.75-8.7 4.67-8.35-4.23.35-8.89 24.11-18.89 24.11-18.89"/><path id="cat_sole" fill="pink" stroke="#779" stroke-width=".5" d="M795.25 558.44c.23.63 3.58 2.74 2.81.62-.77-2.11-3.04-1.25-2.81-.62zm-.96-4.04c-.07-1.4 2.73-1.3 3.33.85.61 2.15-3.26.55-3.33-.85zm.15-3.52c.15-1.29 3.64-.79 3.37.93-.27 1.72-3.52.35-3.37-.93zm2.18-2.5c.5-1.39 4.6.23 3.5 1.5-1.09 1.26-3.99-.12-3.5-1.5zm4.42 5.15c-2.11-.46-2.71 2.31-1 3.87.12 2.56.16 3.33 1.49 3.4 1.34.07 3.11-7.62 1.96-8.36-1.16-.73-1.6.12-2.45 1.09zm145.87 68.34c.96-.7 2.83 1.17 1.66 1.65-1.18.48-2.61-.95-1.66-1.65zm3.18-.7c1.32-.97 2.74 1.09 2 1.87-.74.79-3.33-.89-2-1.87zm2.56-1.17c.58-1.21 2.87.83 2.22 1.7-.65.87-2.79-.49-2.22-1.7zm.44-2.91c.27-1.44 3.3.43 2.95 1.39-.34.95-3.22.05-2.95-1.39zm-3.52.08c2.26 2.73-.77 3.23-1.35 2.53-2.86 2.21-2.83-.13-2.61-.92.22-.78 1.43-2.91 2-3.48.56-.56 3.81-1.49 1.96 1.87z"/><path id="cat_hair" fill="#001" d="M922.49 452.93c.3.15-6.66 7.63-8.68 6.63-6.5.75 2.75 7.63 16.19 1.77-.88-.06 7.77 10.87 9.67 11 11.63 3.62 1.03-11.09.17-11.21-4.96-1.28-15.84-6.46-17.35-8.19z"/><path id="cat_ear" fill="pink" stroke="gray" stroke-width="1" d="M910.44 455.81c.94-1.23 6.69-1.95 8.81-1.5 0 0-5.5-11.43-7.37-11.25-1.88.19-1.44 12.75-1.44 12.75zm33.31 6.94c2.63-.06 12.69-5.63 13.94-4.44 1.25 1.19-8.57 11.44-8.57 11.44-.18-2.13-3.62-6-5.37-7z"/><path id="cat_face" fill="none" stroke="#000" stroke-width="1" stroke-linecap="round" stroke-linejoin="round" d="M922.49 452.93c.3.15-6.66 7.63-8.68 6.63-6.5.75 2.75 7.63 16.19 1.77-.88-.06 7.77 10.87 9.67 11 11.63 3.62 1.03-11.09.17-11.21-4.96-1.28-15.84-6.46-17.35-8.19zm-8.11 28.82.44 1.7 5.73-3.63-2.46-.46 2.09 5.37s2.79-1.73 2.7-1.73m18.12 7.82c-3.62-4.76-13-6.91-13-6.91m-17.91-10.55s-9.09-7.86-18.64-9.09m4.55 10c5.81-.77 14.36 2.73 14.36 2.73m38.89 5.88c-9.44-3.32-19.89-2.06-19.89-2.06m.92-5.76 4.75.75m.35 1.13-4.13-.69m-18.72-9.03 3.16 2.19m-2.75-1.1 3.31 2.5"/></svg><svg id="steam_code_cat_paw_eye_light_anim" viewBox="0 100 1000 650"><defs><radialGradient id="light_gradient" cx=".5" cy=".7" r="1" fx=".65" fy="0"><stop offset="0%" stop-color="#ffff8899"/><stop offset="55%" stop-color="#ffff8800"/></radialGradient><linearGradient id="steam_grad" gradientTransform="rotate(90)"><stop offset="0" stop-color="#ffffff00"><animate dur="2s" attributeName="offset" from="1" to="-.3" repeatCount="indefinite"/></stop><stop offset=".2" stop-color="#fffd"><animate dur="2s" attributeName="offset" from="1.3" to="0" repeatCount="indefinite"/></stop><stop offset=".3" stop-color="#ffffff00"><animate dur="2s" attributeName="offset" from="1.6" to=".3" repeatCount="indefinite"/></stop></linearGradient></defs><path id="code1" fill="none" stroke="#0ff" stroke-width="3" d="M220.75 312z"><animate attributeName="d" keyTimes="0;.12;1" dur="2s" values="M220.75,312.00L220.75,312.00Z; M220.75,312.00 L249.25,303.25Z; M220.75,312.00 L249.25,303.25Z" repeatCount="indefinite"/></path><path id="code2" fill="none" stroke="#0ff" stroke-width="3" d="M220.25 325.75z"><animate attributeName="d" keyTimes="0;.12;.25;1" dur="2s" repeatCount="indefinite" values="M220.25,325.75L220.25,325.75Z;M220.25,325.75L220.25,325.75Z; M220.25,325.75L345.00,292.50Z;M220.25,325.75L345.00,292.50Z"/></path><path id="code3" fill="none" stroke="#0ff" stroke-width="3" d="M242.75 331.5z"><animate attributeName="d" keyTimes="0;.25;.37;1" dur="2s" repeatCount="indefinite" values="M242.75,331.50L242.75,331.50Z;M242.75,331.50L242.75,331.50Z; M242.75,331.50L284.00,319.75Z;M242.75,331.50L284.00,319.75Z"/></path><path id="code4" fill="none" stroke="#0ff" stroke-width="3" d="M243.25 343z"><animate attributeName="d" keyTimes="0;.37;.5;1" dur="2s" repeatCount="indefinite" values="M243.25,343.00L243.25,343.00Z;M243.25,343.00L243.25,343.00Z; M243.25,343.00L305.50,324.50Z;M243.25,343.00L305.50,324.50Z"/></path><path id="code5" fill="none" stroke="#0ff" stroke-width="3" d="M267.75 344z"><animate attributeName="d" keyTimes="0;.5;.62;1" dur="2s" repeatCount="indefinite" values="M267.75,344.00L267.75,344.00Z;M267.75,344.00L267.75,344.00Z; M267.75,344.00L322.00,329.50Z;M267.75,344.00L322.00,329.50Z"/></path><path id="code6" fill="none" stroke="#0ff" stroke-width="3" d="M268.25 351.25z"><animate attributeName="d" keyTimes="0;.62;.75;1" dur="2s" repeatCount="indefinite" values="M268.25,351.25L268.25,351.25Z; M268.25,351.25L268.25,351.25Z; M268.25,351.25L290.75,345.00Z; M268.25,351.25L290.75,345.00Z"/></path><path id="code7" fill="none" stroke="#0ff" stroke-width="3" d="M247 368.75z"><animate attributeName="d" keyTimes="0;.75;.87;1" dur="2s" repeatCount="indefinite" values="M247.00,368.75L247.00,368.75Z;M247.00,368.75L247.00,368.75Z; M247.00,368.75L274.00,360.75Z;M247.00,368.75L274.00,360.75Z"/></path><path id="code8" fill="none" stroke="#0ff" stroke-width="3" d="M222 388z"><animate attributeName="d" keyTimes="0;.87;.99;1" dur="2s" repeatCount="indefinite" values="M222.00,388.00L222.00,388.00Z;M222.00,388.00L222.00,388.00Z; M222.00,388.00L260.50,375.75Z;M222.00,388.00L260.50,375.75Z"/></path><path id="steam" fill="url(#steam_grad)" d="M212.36 464.64s6.37-8.09-6.81-17c-13.19-8.91 10.18-.55 10-9.28-.19-8.72-15.64-23.72-15.64-23.72s25.73 15.91 26.09 23.81c.36 7.91-16.18 7.82-11.55 12.55 4.64 4.73-2.09 13.64-2.09 13.64z"/><path id="cat_paw_left" fill="none" stroke="#333" stroke-width="1" stroke-linecap="round" d="M869.36 524s5.39 0 12.26-.62c3.13-.13 4.88 2 4.88 2 4.25 5.12 8.25 1.24 5.75-4.26-3.5-4.24-16.24-6.63-16.37-6.37"><animate attributeName="d" repeatCount="indefinite" dur="1.8s" keyTimes="0;.5;.7;1" values="M 869.36,524.00 C 869.36,524.00 874.75,524.00 881.62,523.38 884.75,523.25 886.50,525.38 886.50,525.38 890.75,530.50 894.75,526.62 892.25,521.12 888.75,516.88 876.01,514.49 875.88,514.75; M 869.36,524.00 C 869.36,524.00 874.75,524.00 881.62,523.38 884.75,523.25 886.50,525.38 886.50,525.38 890.75,530.50 894.75,526.62 892.25,521.12 888.75,516.88 876.01,514.49 875.88,514.75; M 869.36,524.00 C 869.36,524.00 873.95,523.76 879.50,525.12 885.05,526.49 883.75,528.50 883.75,528.50 886.38,535.75 890.50,528.88 889.62,524.50 887.50,517.75 878.59,514.11 878.45,514.36; M 869.36,524.00 C 869.36,524.00 874.75,524.00 881.62,523.38 884.75,523.25 886.50,525.38 886.50,525.38 890.75,530.50 894.75,526.62 892.25,521.12 888.75,516.88 876.01,514.49 875.88,514.75"/></path><path id="eye" fill="#000" d="M354.93 377.34c-2.45-2.45-.89-8.13 1.68-6.63 2 1.16 4.32 6.27.23 4.45 1.45 2.06 1.81 3.63 1.55 4.66-.36 1.42-1.9 1.84-3.38 1.17-3.53-1.92-1.71-4.19-.08-3.65z"><animate attributeName="d" values="M 354.93,377.34 C 352.48,374.89 354.04,369.21 356.61,370.71 358.61,371.87 360.93,376.98 356.84,375.16 358.29,377.22 358.65,378.79 358.39,379.82 358.03,381.24 356.49,381.66 355.01,380.99 351.48,379.07 353.30,376.80 354.93,377.34 Z; M 355.44,377.12 C 352.99,374.68 352.93,373.94 355.50,375.44 357.50,376.60 359.65,377.88 355.56,376.06 357.01,378.12 358.70,377.35 358.44,378.38 357.06,378.69 357.29,378.98 355.81,378.31 352.28,376.39 353.81,376.59 355.44,377.12 Z; M 354.93,377.34 C 352.48,374.89 354.04,369.21 356.61,370.71 358.61,371.87 360.93,376.98 356.84,375.16 358.29,377.22 358.65,378.79 358.39,379.82 358.03,381.24 356.49,381.66 355.01,380.99 351.48,379.07 353.30,376.80 354.93,377.34 Z; M 354.93,377.34 C 352.48,374.89 354.04,369.21 356.61,370.71 358.61,371.87 360.93,376.98 356.84,375.16 358.29,377.22 358.65,378.79 358.39,379.82 358.03,381.24 356.49,381.66 355.01,380.99 351.48,379.07 353.30,376.80 354.93,377.34 Z" keyTimes="0;.01;.1;1" dur="1.8s" repeatCount="indefinite"/></path><path id="light" fill="url(#light_gradient)" d="m424 223 88 14 134 344C626.54 802.72 40 724 104 475l320-252z"><animate attributeName="opacity" dur="5s" values="1;1;0;1;1;0;1;0;1;1;0;1" keyTimes="0;.24;.25;.26;.29;.30;.31;.32;.33;.97;.99;1" repeatCount="indefinite"/></path></svg></svg>